<svg xmlns="http://www.w3.org/2000/svg" viewBox="0 0 14.97 14.93"><defs><style>.a{fill:none;stroke:#000;stroke-miterlimit:10;}</style></defs><title>Artboard 12</title><path d="M3.61,2.51A.62.62,0,0,1,4,2.67L5.21,3.83a.55.55,0,0,1,.17.46.71.71,0,0,1-.2.49l-.62.62A1.88,1.88,0,0,0,4.56,8L7,10.46a1.87,1.87,0,0,0,2.63,0l.65-.65a.67.67,0,0,1,.87,0L12.3,11a.55.55,0,0,1,.17.46.84.84,0,0,1-.2.49L10.6,13.59a1.61,1.61,0,0,1-1,.34c-2.45,0-7-3.92-8.26-7.11-.66-1.68-.07-2.22.15-2.43L3.18,2.67a.62.62,0,0,1,.44-.16m0-1A1.61,1.61,0,0,0,2.47,2L.74,3.69C.14,4.25-.38,5.27.37,7.18c1.31,3.31,6.11,7.74,9.19,7.74a2.57,2.57,0,0,0,1.72-.61L13,12.59a1.84,1.84,0,0,0,.47-1.17A1.55,1.55,0,0,0,13,10.26L11.84,9.1a1.66,1.66,0,0,0-2.29,0l-.65.65a.87.87,0,0,1-1.21,0L5.27,7.32a.87.87,0,0,1,0-1.21l.65-.65a1.74,1.74,0,0,0,.47-1.17,1.55,1.55,0,0,0-.47-1.17L4.75,2a1.61,1.61,0,0,0-1.14-.45Z"/><line class="a" x1="10" y1="4.92" x2="14" y2="0.92"/><line class="a" x1="8.5" y1="3" x2="8.5"/><line class="a" x1="11" y1="6.5" x2="15" y2="6.5"/></svg>