<?xml version="1.0" standalone="no"?>
<!DOCTYPE svg PUBLIC "-//W3C//DTD SVG 1.1//EN" "http://www.w3.org/Graphics/SVG/1.1/DTD/svg11.dtd" >
<svg xmlns="http://www.w3.org/2000/svg" xmlns:xlink="http://www.w3.org/1999/xlink" version="1.1">
<metadata>
Created by FontForge 20160407 at Tue Sep 27 17:19:03 2016
 By Jimmy Warting
(c) 2015 Adobe &#38; Nathan Rutzky
</metadata>
<defs>
<font id="OfficeCodeProD-Light" horiz-adv-x="600" >
  <font-face 
    font-family="Office Code Pro D Light"
    font-weight="300"
    font-stretch="normal"
    units-per-em="1000"
    panose-1="0 0 4 9 0 0 0 0 0 0"
    ascent="750"
    descent="-250"
    x-height="510"
    cap-height="660"
    bbox="-436 -287 706 1057"
    underline-thickness="50"
    underline-position="-100"
    stemh="50"
    stemv="62"
    unicode-range="U+0020-E0B3"
  />
<missing-glyph 
d="M72 0v660h456v-660h-456zM298 377h4l130 235h-266l79 -141zM124 93l141 247l-141 249v-496zM474 93v496l-139 -249zM152 46h292l-86 152l-56 105h-4l-59 -105z" />
    <glyph glyph-name=".notdef" 
d="M72 0v660h456v-660h-456zM298 377h4l130 235h-266l79 -141zM124 93l141 247l-141 249v-496zM474 93v496l-139 -249zM152 46h292l-86 152l-56 105h-4l-59 -105z" />
    <glyph glyph-name="space" unicode=" " 
 />
    <glyph glyph-name="A" unicode="A" 
d="M41 0l227 660h64l227 -660h-62l-71 219h-253l-72 -219h-60zM191 268h218l-37 115c-26 77 -48 146 -70 226h-4c-23 -80 -45 -149 -70 -226z" />
    <glyph glyph-name="Aacute" unicode="&#xc1;" 
d="M258 710l91 110h70l-110 -110h-51zM41 0l227 660h64l227 -660h-62l-71 219h-253l-72 -219h-60zM191 268h218l-37 116c-26 77 -48 145 -70 225h-4c-23 -80 -45 -148 -70 -225z" />
    <glyph glyph-name="Abreve" unicode="&#x102;" 
d="M300 713c-77 0 -111 57 -118 107h39c6 -34 30 -70 79 -70s73 36 79 70h39c-7 -50 -41 -107 -118 -107zM41 0l227 660h64l227 -660h-62l-71 219h-253l-72 -219h-60zM191 268h218l-37 116c-26 77 -48 145 -70 225h-4c-23 -80 -45 -148 -70 -225z" />
    <glyph glyph-name="uni01CD" unicode="&#x1cd;" 
d="M272 710l-96 110h50l72 -71h4l72 71h50l-96 -110h-56zM41 0l227 660h64l227 -660h-62l-71 219h-253l-72 -219h-60zM191 268h218l-37 116c-26 77 -48 145 -70 225h-4c-23 -80 -45 -148 -70 -225z" />
    <glyph glyph-name="Acircumflex" unicode="&#xc2;" 
d="M176 710l96 110h56l96 -110h-50l-72 72h-4l-72 -72h-50zM41 0l227 660h64l227 -660h-62l-71 219h-253l-72 -219h-60zM191 268h218l-37 116c-26 77 -48 145 -70 225h-4c-23 -80 -45 -148 -70 -225z" />
    <glyph glyph-name="Adieresis" unicode="&#xc4;" 
d="M219 725c-25 0 -41 17 -41 41c0 25 16 41 41 41c23 0 41 -16 41 -41c0 -24 -18 -41 -41 -41zM381 725c-23 0 -41 17 -41 41c0 25 18 41 41 41c25 0 41 -16 41 -41c0 -24 -16 -41 -41 -41zM41 0l227 660h64l227 -660h-62l-71 219h-253l-72 -219h-60zM191 268h218l-37 116
c-26 77 -48 145 -70 225h-4c-23 -80 -45 -148 -70 -225z" />
    <glyph glyph-name="Agrave" unicode="&#xc0;" 
d="M291 710l-110 110h70l91 -110h-51zM41 0l227 660h64l227 -660h-62l-71 219h-253l-72 -219h-60zM191 268h218l-37 116c-26 77 -48 145 -70 225h-4c-23 -80 -45 -148 -70 -225z" />
    <glyph glyph-name="Amacron" unicode="&#x100;" 
d="M182 736v44h236v-44h-236zM41 0l227 660h64l227 -660h-62l-71 219h-253l-72 -219h-60zM191 268h218l-37 115c-26 77 -48 147 -70 226h-4c-23 -78 -45 -149 -70 -226z" />
    <glyph glyph-name="Aogonek" unicode="&#x104;" 
d="M523 -209c-49 0 -88 29 -88 84c0 53 37 100 73 125h-11l-71 219h-253l-72 -219h-60l227 660h64l227 -660c-42 -24 -76 -72 -76 -114c0 -33 25 -49 49 -49c18 0 30 4 43 14l19 -34c-17 -13 -47 -26 -71 -26zM191 268h218l-37 115c-26 77 -48 146 -70 226h-4
c-23 -80 -45 -149 -70 -226z" />
    <glyph glyph-name="Aring" unicode="&#xc5;" 
d="M300 703c-49 0 -85 32 -85 84s36 85 85 85c48 0 86 -33 86 -85s-38 -84 -86 -84zM300 732c26 0 50 19 50 55c0 34 -24 55 -50 55c-28 0 -51 -21 -51 -55c0 -36 23 -55 51 -55zM41 0l227 660h64l227 -660h-62l-71 217h-253l-72 -217h-60zM191 268h218l-37 114
c-26 77 -48 147 -70 227h-4c-23 -80 -45 -150 -70 -227z" />
    <glyph glyph-name="Atilde" unicode="&#xc3;" 
d="M164 717c5 52 31 98 77 98c53 0 80 -56 119 -56c20 0 36 23 41 56h35c-5 -49 -31 -98 -77 -98c-53 0 -79 55 -119 55c-19 0 -36 -20 -40 -55h-36zM41 0l227 660h64l227 -660h-62l-71 219h-253l-72 -219h-60zM191 268h218l-37 115c-26 77 -48 146 -70 226h-4
c-23 -80 -45 -149 -70 -226z" />
    <glyph glyph-name="AE" unicode="&#xc6;" 
d="M0 0l279 660h302v-50h-206v-234h158v-52h-158v-273h215v-51h-271v208h-173l-83 -208h-63zM169 258h150v353h-3c-30 -74 -63 -148 -94 -224z" />
    <glyph glyph-name="B" unicode="B" 
d="M110 0v660h171c134 0 220 -48 220 -160c0 -67 -39 -125 -116 -144v-4c97 -14 156 -68 156 -159c0 -129 -98 -193 -246 -193h-185zM171 372h94c127 0 177 45 177 126c0 80 -59 114 -172 114h-99v-240zM171 48h112c124 0 199 45 199 146c0 91 -72 132 -199 132h-112v-278z
" />
    <glyph glyph-name="uni0243" unicode="&#x243;" 
d="M112 0v178h-78v34l78 4v444h179c134 0 221 -49 221 -159c0 -67 -39 -122 -117 -142v-4c97 -14 155 -67 155 -160c0 -131 -96 -195 -245 -195h-193zM171 375h103c127 0 179 41 179 124c0 82 -60 116 -173 116h-109v-240zM171 47h122c124 0 200 47 200 150
c0 93 -72 135 -200 135h-122v-116h156v-38h-156v-131z" />
    <glyph glyph-name="C" unicode="C" 
d="M351 -12c-164 0 -281 131 -281 344c0 209 117 340 286 340c78 0 138 -37 174 -78l-34 -39c-35 38 -82 64 -140 64c-138 0 -224 -111 -224 -287c0 -177 86 -291 222 -291c65 0 113 27 159 78l35 -37c-51 -58 -113 -94 -197 -94z" />
    <glyph glyph-name="Cacute" unicode="&#x106;" 
d="M302 710l91 110h71l-111 -110h-51zM351 -12c-164 0 -281 131 -281 344c0 210 117 340 286 340c78 0 138 -36 174 -78l-34 -39c-35 39 -82 65 -140 65c-138 0 -224 -112 -224 -287c0 -177 86 -292 222 -292c65 0 113 27 159 78l35 -37c-51 -58 -113 -94 -197 -94z" />
    <glyph glyph-name="Ccaron" unicode="&#x10c;" 
d="M316 710l-96 110h51l71 -71h4l73 71h50l-96 -110h-57zM351 -12c-164 0 -281 131 -281 344c0 210 117 340 286 340c78 0 138 -36 174 -78l-34 -39c-35 39 -82 65 -140 65c-138 0 -224 -112 -224 -287c0 -177 86 -292 222 -292c65 0 113 27 159 78l35 -37
c-51 -58 -113 -94 -197 -94z" />
    <glyph glyph-name="Ccedilla" unicode="&#xc7;" 
d="M269 -211l-7 35c54 7 92 22 92 49c0 29 -27 43 -67 53l34 63c-148 17 -251 143 -251 343c0 209 117 340 286 340c78 0 138 -37 174 -78l-34 -39c-35 38 -82 64 -140 64c-138 0 -224 -111 -224 -287c0 -177 86 -291 222 -291c65 0 113 27 159 78l35 -37
c-49 -55 -106 -91 -186 -94l-21 -40c33 -11 61 -31 61 -71c0 -54 -64 -80 -133 -88z" />
    <glyph glyph-name="Ccircumflex" unicode="&#x108;" 
d="M220 710l96 110h57l96 -110h-50l-73 72h-4l-71 -72h-51zM351 -12c-164 0 -281 131 -281 344c0 210 117 340 286 340c78 0 138 -36 174 -78l-34 -39c-35 39 -82 65 -140 65c-138 0 -224 -112 -224 -287c0 -177 86 -292 222 -292c65 0 113 27 159 78l35 -37
c-51 -58 -113 -94 -197 -94z" />
    <glyph glyph-name="Cdotaccent" unicode="&#x10a;" 
d="M344 721c-25 0 -46 20 -46 47c0 26 21 44 46 44c26 0 47 -18 47 -44c0 -27 -21 -47 -47 -47zM351 -12c-164 0 -281 131 -281 344c0 209 117 340 286 340c78 0 138 -37 174 -78l-34 -39c-35 39 -82 65 -140 65c-138 0 -224 -112 -224 -288s86 -291 222 -291
c65 0 113 27 159 78l35 -37c-51 -58 -113 -94 -197 -94z" />
    <glyph glyph-name="D" unicode="D" 
d="M93 0v660h153c202 0 300 -124 300 -327c0 -204 -98 -333 -297 -333h-156zM151 49h91c167 0 243 114 243 284c0 169 -76 278 -243 278h-91v-562z" />
    <glyph glyph-name="Eth" unicode="&#xd0;" 
d="M99 0v330h-78v33l78 4v293h154c199 0 299 -124 299 -327c0 -204 -100 -333 -298 -333h-155zM157 49h91c167 0 243 114 243 284c0 169 -76 278 -243 278h-91v-244h157v-37h-157v-281z" />
    <glyph glyph-name="Dcaron" unicode="&#x10e;" 
d="M272 710l-96 110h50l72 -71h4l71 71h50l-96 -110h-55zM93 0v660h153c202 0 300 -124 300 -327c0 -204 -98 -333 -297 -333h-156zM151 49h91c167 0 243 114 243 284c0 169 -76 279 -243 279h-91v-563z" />
    <glyph glyph-name="Dcroat" unicode="&#x110;" 
d="M99 0v330h-78v33l78 4v293h154c199 0 299 -124 299 -327c0 -204 -100 -333 -298 -333h-155zM157 49h91c167 0 243 114 243 284c0 169 -76 278 -243 278h-91v-244h157v-37h-157v-281z" />
    <glyph glyph-name="E" unicode="E" 
d="M123 0v660h396v-50h-336v-235h283v-52h-283v-272h346v-51h-406z" />
    <glyph glyph-name="Eacute" unicode="&#xc9;" 
d="M292 710l91 110h71l-111 -110h-51zM123 0v660h396v-49h-336v-236h283v-52h-283v-272h346v-51h-406z" />
    <glyph glyph-name="Ebreve" unicode="&#x114;" 
d="M334 713c-77 0 -112 57 -117 107h38c6 -34 29 -70 79 -70s72 36 78 70h41c-7 -50 -41 -107 -119 -107zM123 0v660h396v-49h-336v-236h283v-52h-283v-272h346v-51h-406z" />
    <glyph glyph-name="Ecaron" unicode="&#x11a;" 
d="M306 710l-96 110h51l71 -71h4l73 71h48l-96 -110h-55zM123 0v660h396v-49h-336v-236h283v-52h-283v-272h346v-51h-406z" />
    <glyph glyph-name="Ecircumflex" unicode="&#xca;" 
d="M210 710l96 110h55l96 -110h-48l-73 72h-4l-71 -72h-51zM123 0v660h396v-49h-336v-236h283v-52h-283v-272h346v-51h-406z" />
    <glyph glyph-name="Edieresis" unicode="&#xcb;" 
d="M252 725c-23 0 -41 17 -41 41c0 25 18 41 41 41c24 0 41 -16 41 -41c0 -24 -17 -41 -41 -41zM416 725c-24 0 -42 17 -42 41c0 25 18 41 42 41c23 0 41 -16 41 -41c0 -24 -18 -41 -41 -41zM123 0v660h396v-49h-336v-236h283v-52h-283v-272h346v-51h-406z" />
    <glyph glyph-name="Edotaccent" unicode="&#x116;" 
d="M334 721c-25 0 -46 20 -46 47c0 26 21 44 46 44c26 0 46 -18 46 -44c0 -27 -20 -47 -46 -47zM123 0v660h396v-49h-336v-236h283v-52h-283v-272h346v-51h-406z" />
    <glyph glyph-name="Egrave" unicode="&#xc8;" 
d="M326 710l-111 110h71l91 -110h-51zM123 0v660h396v-49h-336v-236h283v-52h-283v-272h346v-51h-406z" />
    <glyph glyph-name="Emacron" unicode="&#x112;" 
d="M217 736v44h235v-44h-235zM123 0v660h396v-49h-336v-236h283v-52h-283v-272h346v-51h-406z" />
    <glyph glyph-name="Eogonek" unicode="&#x118;" 
d="M471 -209c-48 0 -88 29 -88 84s36 100 74 125h-334v660h396v-50h-336v-235h283v-52h-283v-272h346v-51h-4c-45 -8 -93 -57 -93 -114c0 -33 24 -49 49 -49c17 0 29 4 43 14l18 -34c-17 -13 -47 -26 -71 -26z" />
    <glyph glyph-name="uni1EBC" unicode="&#x1ebc;" 
d="M199 717c4 52 30 98 75 98c53 0 80 -56 119 -56c21 0 36 23 42 56h34c-3 -49 -29 -98 -75 -98c-53 0 -80 55 -119 55c-21 0 -36 -20 -41 -55h-35zM123 0v660h396v-49h-336v-236h283v-52h-283v-272h346v-51h-406z" />
    <glyph glyph-name="F" unicode="F" 
d="M145 0v660h390v-50h-331v-250h280v-49h-280v-311h-59z" />
    <glyph glyph-name="G" unicode="G" 
d="M335 -12c-164 0 -279 131 -279 344c0 210 117 340 288 340c86 0 142 -41 177 -78l-34 -39c-34 36 -76 64 -143 64c-138 0 -225 -111 -225 -287c0 -177 81 -291 220 -291c54 0 103 18 132 46v194h-144v50h201v-268c-41 -42 -107 -75 -193 -75z" />
    <glyph glyph-name="Gbreve" unicode="&#x11e;" 
d="M331 713c-77 0 -111 57 -118 107h40c6 -34 29 -70 78 -70s73 36 79 70h39c-5 -50 -41 -107 -118 -107zM335 -12c-164 0 -279 131 -279 344c0 210 117 340 288 340c86 0 142 -40 177 -78l-34 -39c-34 36 -76 65 -143 65c-138 0 -225 -112 -225 -287
c0 -177 81 -292 220 -292c54 0 103 18 132 46v195h-144v50h201v-269c-41 -42 -107 -75 -193 -75z" />
    <glyph glyph-name="Gcaron" unicode="&#x1e6;" 
d="M304 710l-96 110h49l72 -71h4l72 71h50l-96 -110h-55zM335 -12c-164 0 -279 131 -279 344c0 210 117 340 288 340c86 0 142 -40 177 -78l-34 -39c-34 36 -76 65 -143 65c-138 0 -225 -112 -225 -287c0 -177 81 -292 220 -292c54 0 103 18 132 46v195h-144v50h201v-269
c-41 -42 -107 -75 -193 -75z" />
    <glyph glyph-name="Gcircumflex" unicode="&#x11c;" 
d="M208 710l96 110h55l96 -110h-50l-72 72h-4l-72 -72h-49zM335 -12c-164 0 -279 131 -279 344c0 210 117 340 288 340c86 0 142 -40 177 -78l-34 -39c-34 36 -76 65 -143 65c-138 0 -225 -112 -225 -287c0 -177 81 -292 220 -292c54 0 103 18 132 46v195h-144v50h201v-269
c-41 -42 -107 -75 -193 -75z" />
    <glyph glyph-name="Gdotaccent" unicode="&#x120;" 
d="M331 721c-25 0 -46 20 -46 47c0 26 21 44 46 44c26 0 47 -18 47 -44c0 -27 -21 -47 -47 -47zM335 -12c-164 0 -279 131 -279 344c0 210 117 340 288 340c86 0 142 -41 177 -78l-34 -39c-34 36 -76 65 -143 65c-138 0 -225 -112 -225 -288s81 -291 220 -291
c54 0 103 18 132 46v195h-144v50h201v-269c-41 -42 -107 -75 -193 -75z" />
    <glyph glyph-name="uni1E20" unicode="&#x1e20;" 
d="M214 736v44h235v-44h-235zM335 -12c-164 0 -279 131 -279 344c0 210 117 340 288 340c86 0 142 -41 177 -78l-34 -39c-34 36 -76 64 -143 64c-138 0 -225 -111 -225 -287s81 -291 220 -291c54 0 103 18 132 46v195h-144v50h201v-269c-41 -42 -107 -75 -193 -75z" />
    <glyph glyph-name="H" unicode="H" 
d="M85 0v660h60v-285h310v285h60v-660h-60v324h-310v-324h-60z" />
    <glyph glyph-name="Hbar" unicode="&#x126;" 
d="M85 0v496h-72v34l72 5v125h60v-126h310v126h60v-126h72v-38h-72v-496h-60v324h-310v-324h-60zM145 375h310v121h-310v-121z" />
    <glyph glyph-name="Hcircumflex" unicode="&#x124;" 
d="M176 710l96 110h55l96 -110h-48l-73 72h-4l-72 -72h-50zM85 0v660h60v-285h310v285h60v-660h-60v324h-310v-324h-60z" />
    <glyph glyph-name="I" unicode="I" 
d="M103 0v51h167v559h-167v50h394v-50h-167v-559h167v-51h-394z" />
    <glyph glyph-name="Iacute" unicode="&#xcd;" 
d="M258 710l91 110h70l-110 -110h-51zM103 0v51h167v560h-167v49h394v-49h-167v-560h167v-51h-394z" />
    <glyph glyph-name="Ibreve" unicode="&#x12c;" 
d="M300 713c-77 0 -111 57 -118 107h39c6 -34 30 -70 79 -70s73 36 79 70h39c-7 -50 -41 -107 -118 -107zM103 0v51h167v560h-167v49h394v-49h-167v-560h167v-51h-394z" />
    <glyph glyph-name="uni01CF" unicode="&#x1cf;" 
d="M272 710l-96 110h50l72 -71h4l72 71h50l-96 -110h-56zM103 0v51h167v560h-167v49h394v-49h-167v-560h167v-51h-394z" />
    <glyph glyph-name="Icircumflex" unicode="&#xce;" 
d="M176 710l96 110h56l96 -110h-50l-72 72h-4l-72 -72h-50zM103 0v51h167v560h-167v49h394v-49h-167v-560h167v-51h-394z" />
    <glyph glyph-name="Idieresis" unicode="&#xcf;" 
d="M219 725c-25 0 -41 17 -41 41c0 25 16 41 41 41c23 0 41 -16 41 -41c0 -24 -18 -41 -41 -41zM381 725c-23 0 -41 17 -41 41c0 25 18 41 41 41c25 0 41 -16 41 -41c0 -24 -16 -41 -41 -41zM103 0v51h167v560h-167v49h394v-49h-167v-560h167v-51h-394z" />
    <glyph glyph-name="Idotaccent" unicode="&#x130;" 
d="M300 721c-26 0 -46 20 -46 47c0 26 20 44 46 44s47 -18 47 -44c0 -27 -21 -47 -47 -47zM103 0v51h167v560h-167v49h394v-49h-167v-560h167v-51h-394z" />
    <glyph glyph-name="Igrave" unicode="&#xcc;" 
d="M291 710l-110 110h70l91 -110h-51zM103 0v51h167v560h-167v49h394v-49h-167v-560h167v-51h-394z" />
    <glyph glyph-name="Imacron" unicode="&#x12a;" 
d="M182 736v44h236v-44h-236zM103 0v51h167v560h-167v49h394v-49h-167v-560h167v-51h-394z" />
    <glyph glyph-name="Iogonek" unicode="&#x12e;" 
d="M307 -209c-49 0 -87 29 -87 84c0 56 29 93 63 125h-180v51h167v559h-167v50h394v-50h-167v-559h167v-51h-167c-37 -35 -63 -69 -63 -114c0 -33 26 -49 51 -49c17 0 29 4 41 14l19 -34c-16 -13 -47 -26 -71 -26z" />
    <glyph glyph-name="Itilde" unicode="&#x128;" 
d="M164 717c5 52 31 98 77 98c53 0 80 -56 119 -56c20 0 36 23 41 56h35c-5 -49 -31 -98 -77 -98c-53 0 -79 55 -119 55c-19 0 -36 -20 -40 -55h-36zM103 0v51h167v560h-167v49h394v-49h-167v-560h167v-51h-394z" />
    <glyph glyph-name="J" unicode="J" 
d="M277 -12c-75 0 -147 35 -188 110l43 35c38 -63 90 -92 144 -92c104 0 149 55 149 170v400h-282v50h341v-455c0 -121 -50 -218 -207 -218z" />
    <glyph glyph-name="Jcircumflex" unicode="&#x134;" 
d="M197 710l96 110h55l96 -110h-49l-72 72h-4l-72 -72h-50zM277 -12c-75 0 -147 35 -188 110l43 35c38 -63 90 -92 144 -92c104 0 149 55 149 170v401h-282v50h341v-456c0 -121 -50 -218 -207 -218z" />
    <glyph glyph-name="K" unicode="K" 
d="M109 0v660h60v-353h3l307 353h69l-212 -246l237 -414h-66l-210 368l-128 -146v-222h-60z" />
    <glyph glyph-name="L" unicode="L" 
d="M144 0v660h58v-609h338v-51h-396z" />
    <glyph glyph-name="Lacute" unicode="&#x139;" 
d="M146 710l91 110h71l-111 -110h-51zM144 0v660h58v-609h338v-51h-396z" />
    <glyph glyph-name="Lcaron" unicode="&#x13d;" 
d="M390 518l-2 209h46l-1 -51l-10 -158h-33zM144 0v661h58v-610h338v-51h-396z" />
    <glyph glyph-name="Ldot" unicode="&#x13f;" 
d="M144 0v660h58v-609h338v-51h-396zM421 293c-29 0 -53 21 -53 53c0 33 24 53 53 53c31 0 54 -20 54 -53c0 -32 -23 -53 -54 -53z" />
    <glyph glyph-name="Lslash" unicode="&#x141;" 
d="M144 0v240l-83 -46v50l83 46v370h58v-342l233 122v-51l-233 -121v-217h338v-51h-396z" />
    <glyph glyph-name="M" unicode="M" horiz-adv-x="644" 
d="M80 0v660h79l119 -298l43 -113h4l40 113l119 298h80v-660h-60v430c0 48 4 121 6 167h-4l-43 -126l-121 -291h-39l-122 291l-47 126h-3c3 -46 8 -119 8 -167v-430h-59z" />
    <glyph glyph-name="N" unicode="N" 
d="M89 0v660h61l311 -580h1c-1 63 -7 131 -7 197v383h56v-660h-61l-241 449l-70 132h-1c1 -65 7 -130 7 -194v-387h-56z" />
    <glyph glyph-name="Nacute" unicode="&#x143;" 
d="M264 710l91 110h70l-110 -110h-51zM89 0v660h61l311 -580h1c-1 63 -7 131 -7 197v383h56v-660h-61l-241 450l-70 132h-1c1 -65 7 -130 7 -195v-387h-56z" />
    <glyph glyph-name="Ncaron" unicode="&#x147;" 
d="M278 710l-96 110h50l72 -71h4l72 71h50l-96 -110h-56zM89 0v660h61l311 -580h1c-1 63 -7 131 -7 197v383h56v-660h-61l-241 450l-70 132h-1c1 -65 7 -130 7 -195v-387h-56z" />
    <glyph glyph-name="uni1E44" unicode="&#x1e44;" 
d="M306 721c-26 0 -46 20 -46 47c0 26 20 44 46 44s47 -18 47 -44c0 -27 -21 -47 -47 -47zM89 0v660h61l311 -580h1c-1 63 -7 131 -7 197v383h56v-660h-61l-241 449l-70 132h-1c1 -64 7 -129 7 -194v-387h-56z" />
    <glyph glyph-name="Ntilde" unicode="&#xd1;" 
d="M170 717c5 52 31 98 77 98c53 0 80 -56 119 -56c20 0 36 23 41 56h35c-5 -49 -31 -98 -77 -98c-53 0 -79 55 -119 55c-19 0 -36 -20 -40 -55h-36zM89 0v660h61l311 -580h1c-1 63 -7 131 -7 197v383h56v-660h-61l-241 449l-70 132h-1c1 -64 7 -129 7 -194v-387h-56z" />
    <glyph glyph-name="O" unicode="O" 
d="M300 -12c-145 0 -248 134 -248 345c0 209 103 339 248 339s248 -131 248 -339c0 -211 -103 -345 -248 -345zM300 41c112 0 187 115 187 292c0 176 -75 286 -187 286s-187 -110 -187 -286c0 -177 75 -292 187 -292z" />
    <glyph glyph-name="Oacute" unicode="&#xd3;" 
d="M258 710l91 110h70l-110 -110h-51zM300 -12c-145 0 -248 135 -248 345s103 339 248 339s248 -130 248 -339c0 -210 -103 -345 -248 -345zM300 41c112 0 187 115 187 292c0 176 -75 287 -187 287s-187 -111 -187 -287c0 -177 75 -292 187 -292z" />
    <glyph glyph-name="Obreve" unicode="&#x14e;" 
d="M300 713c-77 0 -111 57 -118 107h39c6 -34 30 -70 79 -70s73 36 79 70h39c-7 -50 -41 -107 -118 -107zM300 -12c-145 0 -248 135 -248 345s103 339 248 339s248 -130 248 -339c0 -210 -103 -345 -248 -345zM300 41c112 0 187 115 187 292c0 176 -75 287 -187 287
s-187 -111 -187 -287c0 -177 75 -292 187 -292z" />
    <glyph glyph-name="uni01D1" unicode="&#x1d1;" 
d="M272 710l-96 110h50l72 -71h4l72 71h50l-96 -110h-56zM300 -12c-145 0 -248 135 -248 345s103 339 248 339s248 -130 248 -339c0 -210 -103 -345 -248 -345zM300 41c112 0 187 115 187 292c0 176 -75 287 -187 287s-187 -111 -187 -287c0 -177 75 -292 187 -292z" />
    <glyph glyph-name="Ocircumflex" unicode="&#xd4;" 
d="M176 710l96 110h56l96 -110h-50l-72 72h-4l-72 -72h-50zM300 -12c-145 0 -248 135 -248 345s103 339 248 339s248 -130 248 -339c0 -210 -103 -345 -248 -345zM300 41c112 0 187 115 187 292c0 176 -75 287 -187 287s-187 -111 -187 -287c0 -177 75 -292 187 -292z" />
    <glyph glyph-name="Odieresis" unicode="&#xd6;" 
d="M219 725c-25 0 -41 17 -41 41c0 25 16 41 41 41c23 0 41 -16 41 -41c0 -24 -18 -41 -41 -41zM381 725c-23 0 -41 17 -41 41c0 25 18 41 41 41c25 0 41 -16 41 -41c0 -24 -16 -41 -41 -41zM300 -12c-145 0 -248 135 -248 345s103 339 248 339s248 -130 248 -339
c0 -210 -103 -345 -248 -345zM300 41c112 0 187 115 187 292c0 176 -75 287 -187 287s-187 -111 -187 -287c0 -177 75 -292 187 -292z" />
    <glyph glyph-name="Ograve" unicode="&#xd2;" 
d="M291 710l-110 110h70l91 -110h-51zM300 -12c-145 0 -248 135 -248 345s103 339 248 339s248 -130 248 -339c0 -210 -103 -345 -248 -345zM300 41c112 0 187 115 187 292c0 176 -75 287 -187 287s-187 -111 -187 -287c0 -177 75 -292 187 -292z" />
    <glyph glyph-name="Ohungarumlaut" unicode="&#x150;" 
d="M202 710l67 110h59l-81 -110h-45zM352 710l66 110h59l-81 -110h-44zM300 -12c-145 0 -248 135 -248 345s103 339 248 339s248 -130 248 -339c0 -210 -103 -345 -248 -345zM300 41c112 0 187 115 187 292c0 176 -75 287 -187 287s-187 -111 -187 -287
c0 -177 75 -292 187 -292z" />
    <glyph glyph-name="Omacron" unicode="&#x14c;" 
d="M182 736v44h236v-44h-236zM300 -12c-145 0 -248 135 -248 345s103 339 248 339s248 -130 248 -339c0 -210 -103 -345 -248 -345zM300 41c112 0 187 115 187 292c0 176 -75 286 -187 286s-187 -110 -187 -286c0 -177 75 -292 187 -292z" />
    <glyph glyph-name="uni01EA" unicode="&#x1ea;" 
d="M332 -209c-49 0 -89 29 -89 84c0 41 24 84 61 114c-176 0 -252 169 -252 344c0 209 103 339 248 339s248 -131 248 -339c0 -177 -68 -287 -175 -334c-55 -25 -81 -76 -81 -113c0 -33 25 -49 48 -49c18 0 31 4 44 14l19 -34c-19 -13 -48 -26 -71 -26zM300 41
c112 0 187 115 187 292c0 176 -75 286 -187 286s-187 -110 -187 -286c0 -177 75 -292 187 -292z" />
    <glyph glyph-name="Oslash" unicode="&#xd8;" 
d="M87 -26l-36 25l62 94c-38 60 -61 142 -61 240c0 211 103 340 248 340c63 0 117 -22 158 -67l54 81l35 -25l-61 -92c40 -57 62 -139 62 -237c0 -211 -103 -345 -248 -345c-62 0 -116 23 -159 68zM148 143l283 411c-41 46 -81 66 -131 66c-112 0 -187 -110 -187 -287
c0 -74 12 -139 35 -190zM300 41c112 0 187 115 187 292c0 75 -12 139 -33 188l-279 -415c32 -42 75 -65 125 -65z" />
    <glyph glyph-name="Otilde" unicode="&#xd5;" 
d="M164 717c5 52 31 98 77 98c53 0 80 -56 119 -56c20 0 36 23 41 56h35c-5 -49 -31 -98 -77 -98c-53 0 -79 55 -119 55c-19 0 -36 -20 -40 -55h-36zM300 -12c-145 0 -248 135 -248 345s103 339 248 339s248 -130 248 -339c0 -210 -103 -345 -248 -345zM300 41
c112 0 187 115 187 292c0 176 -75 287 -187 287s-187 -111 -187 -287c0 -177 75 -292 187 -292z" />
    <glyph glyph-name="OE" unicode="&#x152;" 
d="M299 0c-167 0 -261 129 -261 333s94 328 263 328h279v-50h-207v-236h158v-52h-158v-272h217v-51h-291zM293 49h23v562h-23c-132 0 -193 -107 -193 -278s61 -284 193 -284z" />
    <glyph glyph-name="P" unicode="P" 
d="M113 0v660h187c146 0 237 -48 237 -187c0 -134 -91 -197 -237 -197h-128v-276h-59zM172 326h116c128 0 189 43 189 147c0 106 -62 139 -189 139h-116v-286z" />
    <glyph glyph-name="Thorn" unicode="&#xde;" 
d="M112 0v660h60v-115h128c147 0 237 -49 237 -188c0 -132 -92 -196 -237 -196h-128v-161h-60zM172 210h116c128 0 189 43 189 147c0 105 -63 138 -189 138h-116v-285z" />
    <glyph glyph-name="Q" unicode="Q" 
d="M477 -158c-112 0 -178 63 -208 148c-129 18 -215 149 -215 343c0 209 99 340 246 340c145 0 245 -132 245 -340c0 -194 -85 -324 -211 -343c22 -61 75 -95 151 -95c20 0 36 5 47 9l11 -51c-21 -6 -41 -11 -66 -11zM300 39c112 0 184 118 184 294s-72 289 -184 289
c-113 0 -186 -113 -186 -289s73 -294 186 -294z" />
    <glyph glyph-name="R" unicode="R" 
d="M111 0v660h194c131 0 221 -48 221 -177c0 -106 -63 -166 -159 -186l174 -297h-68l-171 294h-132v-294h-59zM170 344h123c111 0 173 45 173 139s-62 129 -173 129h-123v-268z" />
    <glyph glyph-name="Racute" unicode="&#x154;" 
d="M262 710l92 110h71l-112 -110h-51zM111 0v660h194c131 0 221 -47 221 -177c0 -105 -63 -166 -159 -186l174 -297h-68l-171 294h-132v-294h-59zM170 344h123c111 0 173 45 173 139c0 95 -62 129 -173 129h-123v-268z" />
    <glyph glyph-name="Rcaron" unicode="&#x158;" 
d="M278 710l-96 110h50l72 -71h4l71 71h50l-96 -110h-55zM111 0v660h194c131 0 221 -47 221 -177c0 -105 -63 -166 -159 -186l174 -297h-68l-171 294h-132v-294h-59zM170 344h123c111 0 173 45 173 139c0 95 -62 129 -173 129h-123v-268z" />
    <glyph glyph-name="S" unicode="S" 
d="M308 -12c-99 0 -180 40 -235 99l37 42c49 -53 120 -88 198 -88c102 0 164 50 164 124c0 78 -56 100 -125 131l-98 42c-63 26 -143 71 -143 167c0 98 87 167 206 167c83 0 153 -34 197 -79l-33 -39c-42 39 -95 65 -164 65c-87 0 -145 -42 -145 -110c0 -71 68 -98 121 -122
l97 -42c78 -36 147 -75 147 -175c0 -103 -87 -182 -224 -182z" />
    <glyph glyph-name="Sacute" unicode="&#x15a;" 
d="M270 710l91 110h71l-111 -110h-51zM308 -12c-99 0 -180 40 -235 99l37 42c49 -53 120 -88 198 -88c102 0 164 50 164 124c0 78 -56 100 -125 131l-98 43c-63 25 -143 70 -143 166c0 98 87 167 206 167c83 0 153 -33 197 -78l-33 -40c-42 40 -95 66 -164 66
c-87 0 -145 -43 -145 -111c0 -71 68 -97 121 -122l97 -42c78 -36 147 -75 147 -175c0 -103 -87 -182 -224 -182z" />
    <glyph glyph-name="Scaron" unicode="&#x160;" 
d="M284 710l-96 110h50l73 -71h4l71 71h51l-96 -110h-57zM308 -12c-99 0 -180 40 -235 99l37 42c49 -53 120 -88 198 -88c102 0 164 50 164 124c0 78 -56 100 -125 131l-98 43c-63 25 -143 70 -143 166c0 98 87 167 206 167c83 0 153 -33 197 -78l-33 -40
c-42 40 -95 66 -164 66c-87 0 -145 -43 -145 -111c0 -71 68 -97 121 -122l97 -42c78 -36 147 -75 147 -175c0 -103 -87 -182 -224 -182z" />
    <glyph glyph-name="Scedilla" unicode="&#x15e;" 
d="M239 -211l-7 35c54 7 91 22 91 49c0 29 -26 43 -66 53l33 63c-90 4 -164 42 -217 98l37 42c49 -53 120 -88 198 -88c102 0 164 50 164 124c0 78 -56 100 -125 131l-98 42c-63 26 -143 71 -143 167c0 98 87 167 206 167c83 0 153 -34 197 -79l-33 -39
c-42 39 -95 65 -164 65c-87 0 -145 -42 -145 -110c0 -71 68 -98 121 -122l97 -42c78 -36 147 -75 147 -175c0 -98 -77 -172 -200 -182l-21 -40c33 -11 61 -31 61 -71c0 -54 -64 -80 -133 -88z" />
    <glyph glyph-name="Scircumflex" unicode="&#x15c;" 
d="M188 710l96 110h57l96 -110h-51l-71 72h-4l-73 -72h-50zM308 -12c-99 0 -180 40 -235 99l37 42c49 -53 120 -88 198 -88c102 0 164 50 164 124c0 78 -56 100 -125 131l-98 43c-63 25 -143 70 -143 166c0 98 87 167 206 167c83 0 153 -33 197 -78l-33 -40
c-42 40 -95 66 -164 66c-87 0 -145 -43 -145 -111c0 -71 68 -97 121 -122l97 -42c78 -36 147 -75 147 -175c0 -103 -87 -182 -224 -182z" />
    <glyph glyph-name="uni1E60" unicode="&#x1e60;" 
d="M313 721c-26 0 -47 20 -47 47c0 26 21 44 47 44c25 0 46 -18 46 -44c0 -27 -21 -47 -46 -47zM308 -12c-99 0 -180 40 -235 99l37 42c49 -53 120 -88 198 -88c102 0 164 50 164 124c0 78 -56 100 -125 131l-98 43c-63 25 -143 70 -143 166c0 98 87 167 206 167
c83 0 153 -34 197 -78l-33 -40c-42 40 -95 66 -164 66c-87 0 -145 -43 -145 -111c0 -71 68 -97 121 -122l97 -42c78 -36 147 -75 147 -175c0 -103 -87 -182 -224 -182z" />
    <glyph glyph-name="uni1E9E" unicode="&#x1e9e;" 
d="M390 -12c-67 0 -126 29 -165 76l37 40c37 -44 75 -64 124 -64c72 0 113 53 113 129c0 71 -35 127 -189 155l-3 42l134 164c-22 51 -64 92 -130 92c-102 0 -166 -64 -166 -207v-415h-60v431c0 137 76 241 229 241c98 0 158 -56 192 -144l-134 -164
c138 -26 190 -100 190 -195c0 -104 -69 -181 -172 -181z" />
    <glyph glyph-name="T" unicode="T" 
d="M270 0v610h-224v50h508v-50h-224v-610h-60z" />
    <glyph glyph-name="Tcaron" unicode="&#x164;" 
d="M272 710l-96 110h48l73 -71h4l72 71h50l-96 -110h-55zM270 0v611h-224v49h508v-49h-224v-611h-60z" />
    <glyph glyph-name="uni0162" unicode="&#x162;" 
d="M222 -210l-7 34c56 7 92 22 92 49c0 29 -27 42 -66 53l38 74h-9v610h-224v50h508v-50h-224v-610h-8l-26 -52c31 -11 59 -31 59 -71c0 -54 -64 -80 -133 -87z" />
    <glyph glyph-name="U" unicode="U" 
d="M301 -12c-118 0 -216 64 -216 259v413h60v-409c0 -159 70 -210 156 -210c85 0 156 51 156 210v409h58v-413c0 -195 -98 -259 -214 -259z" />
    <glyph glyph-name="Uacute" unicode="&#xda;" 
d="M258 710l91 110h70l-110 -110h-51zM301 -12c-118 0 -216 64 -216 260v412h60v-409c0 -159 70 -210 156 -210c85 0 156 51 156 210v409h58v-412c0 -196 -98 -260 -214 -260z" />
    <glyph glyph-name="Ubreve" unicode="&#x16c;" 
d="M300 713c-77 0 -111 57 -118 107h39c6 -34 30 -70 79 -70s73 36 79 70h39c-7 -50 -41 -107 -118 -107zM301 -12c-118 0 -216 64 -216 260v412h60v-409c0 -159 70 -210 156 -210c85 0 156 51 156 210v409h58v-412c0 -196 -98 -260 -214 -260z" />
    <glyph glyph-name="uni01D3" unicode="&#x1d3;" 
d="M272 710l-96 110h50l72 -71h4l72 71h50l-96 -110h-56zM301 -12c-118 0 -216 64 -216 260v412h60v-409c0 -159 70 -210 156 -210c85 0 156 51 156 210v409h58v-412c0 -196 -98 -260 -214 -260z" />
    <glyph glyph-name="Ucircumflex" unicode="&#xdb;" 
d="M176 710l96 110h56l96 -110h-50l-72 72h-4l-72 -72h-50zM301 -12c-118 0 -216 64 -216 260v412h60v-409c0 -159 70 -210 156 -210c85 0 156 51 156 210v409h58v-412c0 -196 -98 -260 -214 -260z" />
    <glyph glyph-name="Udieresis" unicode="&#xdc;" 
d="M219 725c-25 0 -41 17 -41 41c0 25 16 41 41 41c23 0 41 -16 41 -41c0 -24 -18 -41 -41 -41zM381 725c-23 0 -41 17 -41 41c0 25 18 41 41 41c25 0 41 -16 41 -41c0 -24 -16 -41 -41 -41zM301 -12c-118 0 -216 64 -216 261v411h60v-409c0 -159 70 -210 156 -210
c85 0 156 51 156 210v409h58v-411c0 -197 -98 -261 -214 -261z" />
    <glyph glyph-name="Ugrave" unicode="&#xd9;" 
d="M291 710l-110 110h70l91 -110h-51zM301 -12c-118 0 -216 64 -216 260v412h60v-409c0 -159 70 -210 156 -210c85 0 156 51 156 210v409h58v-412c0 -196 -98 -260 -214 -260z" />
    <glyph glyph-name="Uhungarumlaut" unicode="&#x170;" 
d="M202 710l67 110h59l-81 -110h-45zM352 710l66 110h59l-81 -110h-44zM301 -12c-118 0 -216 64 -216 260v412h60v-409c0 -159 70 -210 156 -210c85 0 156 51 156 210v409h58v-412c0 -196 -98 -260 -214 -260z" />
    <glyph glyph-name="Umacron" unicode="&#x16a;" 
d="M182 736v44h236v-44h-236zM301 -12c-118 0 -216 64 -216 261v411h60v-409c0 -159 70 -210 156 -210c85 0 156 51 156 210v409h58v-411c0 -197 -98 -261 -214 -261z" />
    <glyph glyph-name="Uogonek" unicode="&#x172;" 
d="M328 -209c-49 0 -89 29 -89 84c0 54 37 86 65 114c-148 -1 -219 90 -219 258v413h60v-409c0 -159 69 -210 155 -210c85 0 157 51 157 210v409h58v-413c0 -140 -53 -211 -124 -243c-67 -31 -103 -79 -103 -118c0 -33 24 -49 49 -49c17 0 28 4 43 14l17 -34
c-16 -13 -47 -26 -69 -26z" />
    <glyph glyph-name="Uring" unicode="&#x16e;" 
d="M300 703c-49 0 -85 32 -85 84s36 85 85 85c48 0 86 -33 86 -85s-38 -84 -86 -84zM300 732c26 0 50 19 50 55c0 34 -24 55 -50 55c-28 0 -51 -21 -51 -55c0 -36 23 -55 51 -55zM301 -12c-118 0 -216 64 -216 260v412h60v-410c0 -158 70 -209 156 -209c85 0 156 51 156 209
v410h58v-412c0 -196 -98 -260 -214 -260z" />
    <glyph glyph-name="Utilde" unicode="&#x168;" 
d="M164 717c5 52 31 98 77 98c53 0 80 -56 119 -56c20 0 36 23 41 56h35c-5 -49 -31 -98 -77 -98c-53 0 -79 55 -119 55c-19 0 -36 -20 -40 -55h-36zM301 -12c-118 0 -216 64 -216 259v413h60v-409c0 -159 70 -210 156 -210c85 0 156 51 156 210v409h58v-413
c0 -195 -98 -259 -214 -259z" />
    <glyph glyph-name="V" unicode="V" 
d="M267 0l-213 660h62l116 -375c25 -80 42 -140 68 -220h4c25 80 42 140 66 220l116 375h61l-213 -660h-67z" />
    <glyph glyph-name="W" unicode="W" 
d="M119 0l-107 661h58l65 -438c4 -54 13 -108 18 -161h3c15 53 31 108 45 161l78 266h47l79 -266c13 -52 28 -108 44 -161h4c4 53 13 108 17 161l62 438h56l-103 -661h-69l-88 302c-9 38 -17 78 -26 117h-3c-9 -39 -18 -79 -29 -117l-84 -302h-67z" />
    <glyph glyph-name="Wacute" unicode="&#x1e82;" 
d="M258 710l91 110h70l-110 -110h-51zM119 0l-107 662h58l65 -439c4 -54 13 -108 18 -161h3c15 53 31 108 45 161l78 267h47l79 -267c13 -52 28 -108 44 -161h4c4 53 13 107 17 161l62 439h56l-103 -662h-69l-88 303c-9 38 -17 77 -26 116h-3c-9 -39 -18 -78 -29 -116
l-84 -303h-67z" />
    <glyph glyph-name="Wcircumflex" unicode="&#x174;" 
d="M176 710l96 110h56l96 -110h-50l-72 72h-4l-72 -72h-50zM119 0l-107 662h58l65 -439c4 -54 13 -108 18 -161h3c15 53 31 108 45 161l78 267h47l79 -267c13 -52 28 -108 44 -161h4c4 53 13 107 17 161l62 439h56l-103 -662h-69l-88 303c-9 38 -17 77 -26 116h-3
c-9 -39 -18 -78 -29 -116l-84 -303h-67z" />
    <glyph glyph-name="Wdieresis" unicode="&#x1e84;" 
d="M219 725c-25 0 -41 17 -41 41c0 25 16 41 41 41c23 0 41 -16 41 -41c0 -24 -18 -41 -41 -41zM381 725c-23 0 -41 17 -41 41c0 25 18 41 41 41c25 0 41 -16 41 -41c0 -24 -16 -41 -41 -41zM119 0l-107 662h58l65 -439c4 -54 13 -108 18 -161h3c15 53 31 108 45 161l78 267
h47l79 -267c13 -52 28 -108 44 -161h4c4 53 13 108 17 161l62 439h56l-103 -662h-69l-88 303c-9 38 -17 77 -26 116h-3c-9 -39 -18 -78 -29 -116l-84 -303h-67z" />
    <glyph glyph-name="Wgrave" unicode="&#x1e80;" 
d="M291 710l-110 110h70l91 -110h-51zM119 0l-107 662h58l65 -439c4 -54 13 -108 18 -161h3c15 53 31 108 45 161l78 267h47l79 -267c13 -52 28 -108 44 -161h4c4 53 13 107 17 161l62 439h56l-103 -662h-69l-88 303c-9 38 -17 77 -26 116h-3c-9 -39 -18 -78 -29 -116
l-84 -303h-67z" />
    <glyph glyph-name="X" unicode="X" 
d="M68 0l198 342l-185 318h65l103 -185c18 -30 33 -56 54 -92h4c19 36 31 62 48 92l102 185h62l-185 -321l199 -339h-65l-110 194l-60 105h-4c-20 -40 -38 -73 -55 -104l-109 -195h-62z" />
    <glyph glyph-name="Y" unicode="Y" 
d="M270 0v241l-224 419h62l111 -211c27 -50 52 -101 81 -154h4c28 53 57 106 83 157l106 208h61l-224 -419v-241h-60z" />
    <glyph glyph-name="Yacute" unicode="&#xdd;" 
d="M258 710l91 110h70l-110 -110h-51zM270 0v241l-224 419h62l111 -210c27 -50 52 -101 81 -155h4c28 54 57 106 83 157l106 208h61l-224 -419v-241h-60z" />
    <glyph glyph-name="Ycircumflex" unicode="&#x176;" 
d="M176 710l96 110h56l96 -110h-50l-72 72h-4l-72 -72h-50zM270 0v241l-224 419h62l111 -210c27 -50 52 -101 81 -155h4c28 54 57 106 83 157l106 208h61l-224 -419v-241h-60z" />
    <glyph glyph-name="Ydieresis" unicode="&#x178;" 
d="M219 725c-25 0 -41 17 -41 41c0 25 16 41 41 41c23 0 41 -16 41 -41c0 -24 -18 -41 -41 -41zM381 725c-23 0 -41 17 -41 41c0 25 18 41 41 41c25 0 41 -16 41 -41c0 -24 -16 -41 -41 -41zM270 0v241l-224 419h62l111 -209c27 -50 52 -102 81 -156h4c28 54 57 106 83 157
l106 208h61l-224 -419v-241h-60z" />
    <glyph glyph-name="uni1E8E" unicode="&#x1e8e;" 
d="M300 721c-26 0 -46 20 -46 47c0 26 20 44 46 44s47 -18 47 -44c0 -27 -21 -47 -47 -47zM270 0v241l-224 419h62l111 -210c27 -50 52 -101 81 -155h4c28 54 57 106 83 157l106 208h61l-224 -419v-241h-60z" />
    <glyph glyph-name="Ygrave" unicode="&#x1ef2;" 
d="M291 710l-110 110h70l91 -110h-51zM270 0v241l-224 419h62l111 -210c27 -50 52 -101 81 -155h4c28 54 57 106 83 157l106 208h61l-224 -419v-241h-60z" />
    <glyph glyph-name="uni1EF8" unicode="&#x1ef8;" 
d="M164 717c5 52 31 98 77 98c53 0 80 -56 119 -56c20 0 36 23 41 56h35c-5 -49 -31 -98 -77 -98c-53 0 -79 55 -119 55c-19 0 -36 -20 -40 -55h-36zM270 0v241l-224 419h62l111 -210c27 -50 52 -101 81 -155h4c28 54 57 106 83 157l106 208h61l-224 -419v-241h-60z" />
    <glyph glyph-name="Z" unicode="Z" 
d="M68 0v35l390 576h-356v50h429v-35l-392 -575h397v-51h-468z" />
    <glyph glyph-name="Zacute" unicode="&#x179;" 
d="M273 710l91 110h71l-111 -110h-51zM68 0v35l390 577h-356v50h429v-36l-392 -575h397v-51h-468z" />
    <glyph glyph-name="Zcaron" unicode="&#x17d;" 
d="M288 710l-96 110h49l72 -71h4l72 71h50l-96 -110h-55zM68 0v35l390 577h-356v50h429v-36l-392 -575h397v-51h-468z" />
    <glyph glyph-name="Zdotaccent" unicode="&#x17b;" 
d="M315 721c-25 0 -46 20 -46 47c0 26 21 44 46 44c26 0 47 -18 47 -44c0 -27 -21 -47 -47 -47zM68 0v35l390 577h-356v50h429v-36l-392 -575h397v-51h-468z" />
    <glyph glyph-name="a" unicode="a" 
d="M254 -13c-87 0 -165 47 -165 140c0 116 104 170 361 194c-1 78 -34 151 -138 151c-68 0 -122 -36 -157 -67l-24 43c35 30 105 74 190 74c130 0 187 -86 187 -200v-322h-48l-5 75h-3c-55 -46 -127 -88 -198 -88zM267 35c59 0 120 30 183 88v156
c-231 -22 -304 -70 -304 -148c0 -68 60 -96 121 -96z" />
    <glyph glyph-name="aacute" unicode="&#xe1;" 
d="M242 573l91 141h67l-111 -141h-47zM254 -13c-87 0 -165 47 -165 140c0 116 104 170 361 194c-1 78 -34 151 -138 151c-68 0 -122 -36 -157 -67l-24 43c35 30 105 74 190 74c130 0 187 -86 187 -200v-322h-48l-5 75h-3c-55 -46 -127 -88 -198 -88zM267 35
c59 0 120 30 183 88v156c-231 -22 -304 -70 -304 -148c0 -68 60 -96 121 -96z" />
    <glyph glyph-name="abreve" unicode="&#x103;" 
d="M321 575c-84 0 -117 70 -124 126h40c6 -43 32 -86 84 -86s78 43 84 86h40c-6 -56 -40 -126 -124 -126zM254 -13c-87 0 -165 47 -165 140c0 116 104 170 361 194c-1 78 -34 151 -138 151c-68 0 -122 -36 -157 -67l-24 43c35 30 105 74 190 74c130 0 187 -86 187 -200v-322
h-48l-5 75h-3c-55 -46 -127 -88 -198 -88zM267 35c59 0 120 30 183 88v156c-231 -22 -304 -70 -304 -148c0 -68 60 -96 121 -96z" />
    <glyph glyph-name="uni01CE" unicode="&#x1ce;" 
d="M296 573l-96 141h47l72 -101h4l72 101h47l-96 -141h-50zM254 -13c-87 0 -165 47 -165 140c0 116 104 170 361 194c-1 78 -34 151 -138 151c-68 0 -122 -36 -157 -67l-24 43c35 30 105 74 190 74c130 0 187 -86 187 -200v-322h-48l-5 75h-3c-55 -46 -127 -88 -198 -88z
M267 35c59 0 120 30 183 88v156c-231 -22 -304 -70 -304 -148c0 -68 60 -96 121 -96z" />
    <glyph glyph-name="acircumflex" unicode="&#xe2;" 
d="M200 573l96 141h50l96 -141h-47l-72 100h-4l-72 -100h-47zM254 -13c-87 0 -165 47 -165 140c0 116 104 170 361 194c-1 78 -34 151 -138 151c-68 0 -122 -36 -157 -67l-24 43c35 30 105 74 190 74c130 0 187 -86 187 -200v-322h-48l-5 75h-3c-55 -46 -127 -88 -198 -88z
M267 35c59 0 120 30 183 88v156c-231 -22 -304 -70 -304 -148c0 -68 60 -96 121 -96z" />
    <glyph glyph-name="adieresis" unicode="&#xe4;" 
d="M230 594c-27 0 -45 21 -45 46c0 27 18 47 45 47c25 0 45 -20 45 -47c0 -25 -20 -46 -45 -46zM412 594c-25 0 -45 21 -45 46c0 27 20 47 45 47c27 0 45 -20 45 -47c0 -25 -18 -46 -45 -46zM254 -13c-87 0 -165 47 -165 140c0 116 104 170 361 194c-1 78 -34 151 -138 151
c-68 0 -122 -36 -157 -67l-24 43c35 30 105 74 190 74c130 0 187 -86 187 -200v-322h-48l-5 75h-3c-55 -46 -127 -88 -198 -88zM267 35c59 0 120 30 183 88v156c-231 -22 -304 -70 -304 -148c0 -68 60 -96 121 -96z" />
    <glyph glyph-name="agrave" unicode="&#xe0;" 
d="M353 573l-111 141h67l91 -141h-47zM254 -13c-87 0 -165 47 -165 140c0 116 104 170 361 194c-1 78 -34 151 -138 151c-68 0 -122 -36 -157 -67l-24 43c35 30 105 74 190 74c130 0 187 -86 187 -200v-322h-48l-5 75h-3c-55 -46 -127 -88 -198 -88zM267 35
c59 0 120 30 183 88v156c-231 -22 -304 -70 -304 -148c0 -68 60 -96 121 -96z" />
    <glyph glyph-name="amacron" unicode="&#x101;" 
d="M204 604v44h234v-44h-234zM254 -13c-87 0 -165 47 -165 140c0 116 104 170 361 194c-1 78 -34 151 -138 151c-68 0 -122 -36 -157 -67l-24 43c35 30 105 74 190 74c130 0 187 -86 187 -200v-322h-48l-5 75h-3c-55 -46 -127 -88 -198 -88zM267 35c59 0 120 30 183 88v156
c-231 -22 -304 -70 -304 -148c0 -68 60 -96 121 -96z" />
    <glyph glyph-name="aogonek" unicode="&#x105;" 
d="M522 -148l18 -32c-16 -13 -48 -25 -70 -25c-47 0 -84 29 -84 83c0 52 35 98 71 125h3l-5 72h-3c-55 -46 -127 -88 -198 -88c-87 0 -165 47 -165 140c0 116 104 170 361 194c-1 78 -34 151 -138 151c-68 0 -122 -36 -157 -67l-24 43c35 30 105 74 190 74
c130 0 187 -86 187 -200v-322h-6c-44 -32 -70 -71 -70 -113c0 -32 23 -49 48 -49c17 0 30 5 42 14zM450 123v156c-231 -22 -304 -70 -304 -148c0 -68 60 -96 121 -96c59 0 120 30 183 88z" />
    <glyph glyph-name="aring" unicode="&#xe5;" 
d="M321 540c-49 0 -85 36 -85 89s36 89 85 89s86 -36 86 -89s-37 -89 -86 -89zM321 570c29 0 51 23 51 59c0 35 -22 58 -51 58c-28 0 -51 -23 -51 -58c0 -36 23 -59 51 -59zM254 -13c-87 0 -165 47 -165 140c0 116 104 170 361 194c-1 78 -34 151 -138 151
c-68 0 -122 -36 -157 -67l-24 43c35 30 105 74 190 74c130 0 187 -86 187 -200v-322h-48l-5 75h-3c-55 -46 -127 -88 -198 -88zM267 35c59 0 120 30 183 88v156c-231 -22 -304 -70 -304 -148c0 -68 60 -96 121 -96z" />
    <glyph glyph-name="atilde" unicode="&#xe3;" 
d="M190 581c5 50 27 96 77 96c48 0 76 -55 110 -55c21 0 34 20 39 55h36c-5 -49 -27 -96 -77 -96c-49 0 -75 55 -110 55c-21 0 -34 -20 -39 -55h-36zM254 -13c-87 0 -165 47 -165 140c0 116 104 170 361 194c-1 78 -34 151 -138 151c-68 0 -122 -36 -157 -67l-24 43
c35 30 105 74 190 74c130 0 187 -86 187 -200v-322h-48l-5 75h-3c-55 -46 -127 -88 -198 -88zM267 35c59 0 120 30 183 88v156c-231 -22 -304 -70 -304 -148c0 -68 60 -96 121 -96z" />
    <glyph glyph-name="ae" unicode="&#xe6;" 
d="M144 -13c-74 0 -127 51 -127 145c0 100 88 164 257 189c0 87 -26 152 -98 152c-38 0 -89 -23 -118 -45l-23 41c34 24 90 53 151 53c65 0 107 -51 123 -114c31 71 79 114 146 114c97 0 144 -107 144 -227c0 -16 -2 -32 -3 -51h-270c1 -122 44 -210 134 -210
c40 0 74 19 102 36l22 -39c-32 -20 -74 -44 -127 -44c-69 0 -117 38 -148 103c-55 -64 -111 -103 -165 -103zM325 287h223c0 100 -23 188 -98 188c-73 0 -119 -74 -125 -188zM157 35c40 0 92 33 134 93c-11 33 -16 77 -17 123l-1 28c-143 -25 -201 -70 -201 -145
c0 -66 34 -99 85 -99z" />
    <glyph glyph-name="b" unicode="b" 
d="M313 -13c-47 0 -109 28 -157 70h-2l-5 -57h-48v729h58v-186l-2 -107c49 52 115 86 175 86c134 0 203 -101 203 -259c0 -174 -104 -276 -222 -276zM308 37c96 0 167 91 167 225c0 122 -44 210 -154 210c-47 0 -105 -29 -162 -89v-274c52 -51 110 -72 149 -72z" />
    <glyph glyph-name="uni0180" unicode="&#x180;" 
d="M313 -13c-47 0 -109 28 -157 70h-2l-5 -57h-48v580h-76v34l76 5v108h58v-108h223v-39h-223v-58l-2 -107c49 51 115 86 175 86c134 0 203 -97 203 -248c0 -168 -104 -266 -222 -266zM308 37c96 0 167 87 167 215c0 115 -44 199 -154 199c-47 0 -105 -29 -162 -89v-253
c52 -51 110 -72 149 -72z" />
    <glyph glyph-name="c" unicode="c" 
d="M347 -13c-150 0 -262 98 -262 267c0 171 120 268 265 268c79 0 134 -36 174 -77l-31 -39c-41 41 -86 67 -142 67c-122 0 -206 -89 -206 -219s82 -218 205 -218c63 0 115 31 159 71l27 -38c-51 -50 -115 -82 -189 -82z" />
    <glyph glyph-name="cacute" unicode="&#x107;" 
d="M255 573l91 141h67l-111 -141h-47zM347 -13c-150 0 -262 98 -262 267c0 171 120 268 265 268c79 0 134 -36 174 -77l-31 -39c-41 41 -86 67 -142 67c-122 0 -206 -89 -206 -219s82 -218 205 -218c63 0 115 31 159 71l27 -38c-51 -50 -115 -82 -189 -82z" />
    <glyph glyph-name="ccaron" unicode="&#x10d;" 
d="M309 573l-96 141h47l72 -101h4l72 101h47l-96 -141h-50zM347 -13c-150 0 -262 98 -262 267c0 171 120 268 265 268c79 0 134 -36 174 -77l-31 -39c-41 41 -86 67 -142 67c-122 0 -206 -89 -206 -219s82 -218 205 -218c63 0 115 31 159 71l27 -38
c-51 -50 -115 -82 -189 -82z" />
    <glyph glyph-name="ccedilla" unicode="&#xe7;" 
d="M310 -53c33 -11 59 -29 59 -70c0 -53 -64 -79 -131 -87l-7 34c53 8 90 22 90 50c0 29 -25 42 -65 51l34 67c-121 22 -205 115 -205 262c0 171 120 268 265 268c79 0 134 -36 174 -77l-31 -39c-41 41 -86 67 -142 67c-122 0 -206 -89 -206 -219s82 -218 205 -218
c63 0 115 31 159 71l27 -38c-51 -50 -115 -82 -189 -82h-17z" />
    <glyph glyph-name="ccircumflex" unicode="&#x109;" 
d="M213 573l96 141h50l96 -141h-47l-72 100h-4l-72 -100h-47zM347 -13c-150 0 -262 98 -262 267c0 171 120 268 265 268c79 0 134 -36 174 -77l-31 -39c-41 41 -86 67 -142 67c-122 0 -206 -89 -206 -219s82 -218 205 -218c63 0 115 31 159 71l27 -38
c-51 -50 -115 -82 -189 -82z" />
    <glyph glyph-name="cdotaccent" unicode="&#x10b;" 
d="M334 638c-32 0 -59 25 -59 58c0 36 27 60 59 60s59 -24 59 -60c0 -33 -27 -58 -59 -58zM347 -13c-150 0 -262 98 -262 267c0 171 120 268 265 268c79 0 134 -36 174 -77l-31 -39c-41 41 -86 67 -142 67c-122 0 -206 -89 -206 -219s82 -218 205 -218c63 0 115 31 159 71
l27 -38c-51 -50 -115 -82 -189 -82z" />
    <glyph glyph-name="d" unicode="d" 
d="M277 -13c-128 0 -212 96 -212 267c0 164 107 268 224 268c60 0 106 -26 155 -71l-2 102v176h57v-729h-48l-6 74h-3c-41 -46 -102 -87 -165 -87zM286 37c53 0 106 31 156 90v274c-51 51 -98 71 -145 71c-96 0 -172 -94 -172 -218c0 -131 60 -217 161 -217z" />
    <glyph glyph-name="eth" unicode="&#xf0;" 
d="M299 -13c-122 0 -234 93 -234 246c0 140 93 236 231 236c67 0 132 -39 171 -96c-18 111 -63 166 -130 228l-150 -82l-17 32l136 75c-38 30 -81 55 -130 82l29 38c53 -29 104 -58 149 -95l134 74l18 -33l-122 -67c88 -86 147 -183 147 -357c0 -170 -91 -281 -232 -281z
M300 36c120 0 174 102 174 230c0 18 0 35 -1 52c-52 76 -117 104 -172 104c-120 0 -180 -87 -180 -189c0 -117 81 -197 179 -197z" />
    <glyph glyph-name="dcaron" unicode="&#x10f;" 
d="M540 550l-3 220h46l-1 -55l-10 -165h-32zM271 -13c-127 0 -212 96 -212 267c0 164 107 268 225 268c60 0 106 -26 154 -71l-2 102v176h58v-729h-49l-5 74h-3c-41 -46 -102 -87 -166 -87zM280 37c54 0 107 31 156 90v274c-50 51 -98 71 -144 71c-96 0 -172 -94 -172 -218
c0 -131 59 -217 160 -217z" />
    <glyph glyph-name="dcroat" unicode="&#x111;" 
d="M277 -13c-128 0 -212 90 -212 255c0 160 107 259 224 259c60 0 106 -26 155 -72l-2 102v51h-182v40h182v107h57v-107h74v-35l-74 -6v-581h-48l-6 74h-3c-41 -46 -102 -87 -165 -87zM286 37c53 0 106 31 156 90v253c-51 52 -98 71 -145 71c-96 0 -172 -90 -172 -208
c0 -125 60 -206 161 -206z" />
    <glyph glyph-name="e" unicode="e" 
d="M330 -13c-140 0 -256 100 -256 267c0 165 119 268 243 268c134 0 217 -91 217 -237c0 -14 0 -28 -2 -41h-397c1 -122 83 -207 201 -207c62 0 110 20 156 52l22 -42c-45 -30 -101 -60 -184 -60zM134 289h345c0 121 -63 186 -162 186c-88 0 -170 -71 -183 -186z" />
    <glyph glyph-name="eacute" unicode="&#xe9;" 
d="M238 573l91 141h67l-111 -141h-47zM330 -13c-140 0 -256 100 -256 267c0 165 119 268 243 268c134 0 217 -91 217 -237c0 -14 0 -28 -2 -41h-397c1 -122 83 -207 201 -207c62 0 110 20 156 52l22 -42c-45 -30 -101 -60 -184 -60zM134 289h345c0 121 -63 186 -162 186
c-88 0 -170 -71 -183 -186z" />
    <glyph glyph-name="ebreve" unicode="&#x115;" 
d="M317 575c-84 0 -117 70 -124 126h40c6 -43 32 -86 84 -86s78 43 84 86h40c-6 -56 -40 -126 -124 -126zM330 -13c-140 0 -256 100 -256 267c0 165 119 268 243 268c134 0 217 -91 217 -237c0 -14 0 -28 -2 -41h-397c1 -122 83 -207 201 -207c62 0 110 20 156 52l22 -42
c-45 -30 -101 -60 -184 -60zM134 289h345c0 121 -63 186 -162 186c-88 0 -170 -71 -183 -186z" />
    <glyph glyph-name="ecaron" unicode="&#x11b;" 
d="M292 573l-96 141h47l72 -101h4l72 101h47l-96 -141h-50zM330 -13c-140 0 -256 100 -256 267c0 165 119 268 243 268c134 0 217 -91 217 -237c0 -14 0 -28 -2 -41h-397c1 -122 83 -207 201 -207c62 0 110 20 156 52l22 -42c-45 -30 -101 -60 -184 -60zM134 289h345
c0 121 -63 186 -162 186c-88 0 -170 -71 -183 -186z" />
    <glyph glyph-name="ecircumflex" unicode="&#xea;" 
d="M196 573l96 141h50l96 -141h-47l-72 100h-4l-72 -100h-47zM330 -13c-140 0 -256 100 -256 267c0 165 119 268 243 268c134 0 217 -91 217 -237c0 -14 0 -28 -2 -41h-397c1 -122 83 -207 201 -207c62 0 110 20 156 52l22 -42c-45 -30 -101 -60 -184 -60zM134 289h345
c0 121 -63 186 -162 186c-88 0 -170 -71 -183 -186z" />
    <glyph glyph-name="edieresis" unicode="&#xeb;" 
d="M226 594c-27 0 -45 21 -45 46c0 27 18 47 45 47c25 0 45 -20 45 -47c0 -25 -20 -46 -45 -46zM408 594c-25 0 -45 21 -45 46c0 27 20 47 45 47c27 0 45 -20 45 -47c0 -25 -18 -46 -45 -46zM330 -13c-140 0 -256 100 -256 267c0 165 119 268 243 268
c134 0 217 -91 217 -237c0 -14 0 -28 -2 -41h-397c1 -122 83 -207 201 -207c62 0 110 20 156 52l22 -42c-45 -30 -101 -60 -184 -60zM134 289h345c0 121 -63 186 -162 186c-88 0 -170 -71 -183 -186z" />
    <glyph glyph-name="edotaccent" unicode="&#x117;" 
d="M317 638c-32 0 -59 25 -59 58c0 36 27 60 59 60s59 -24 59 -60c0 -33 -27 -58 -59 -58zM330 -13c-140 0 -256 100 -256 267c0 165 119 268 243 268c134 0 217 -91 217 -237c0 -14 0 -28 -2 -41h-397c1 -122 83 -207 201 -207c62 0 110 20 156 52l22 -42
c-45 -30 -101 -60 -184 -60zM134 289h345c0 121 -63 186 -162 186c-88 0 -170 -71 -183 -186z" />
    <glyph glyph-name="egrave" unicode="&#xe8;" 
d="M350 573l-111 141h67l91 -141h-47zM330 -13c-140 0 -256 100 -256 267c0 165 119 268 243 268c134 0 217 -91 217 -237c0 -14 0 -28 -2 -41h-397c1 -122 83 -207 201 -207c62 0 110 20 156 52l22 -42c-45 -30 -101 -60 -184 -60zM134 289h345c0 121 -63 186 -162 186
c-88 0 -170 -71 -183 -186z" />
    <glyph glyph-name="emacron" unicode="&#x113;" 
d="M200 604v44h234v-44h-234zM330 -13c-140 0 -256 100 -256 267c0 165 119 268 243 268c134 0 217 -91 217 -237c0 -14 0 -28 -2 -41h-397c1 -122 83 -207 201 -207c62 0 110 20 156 52l22 -42c-45 -30 -101 -60 -184 -60zM134 289h345c0 121 -63 186 -162 186
c-88 0 -170 -71 -183 -186z" />
    <glyph glyph-name="eogonek" unicode="&#x119;" 
d="M534 285c0 -14 0 -28 -2 -41h-397c1 -122 83 -207 201 -207c62 0 110 20 156 52l22 -42c-28 -18 -59 -37 -98 -48c-42 -32 -68 -71 -68 -112c0 -32 23 -49 48 -49c17 0 30 5 42 14l18 -32c-16 -13 -48 -25 -70 -25c-47 0 -84 29 -84 83c0 43 24 82 53 110
c-8 -1 -16 -1 -25 -1c-140 0 -256 100 -256 267c0 165 119 268 243 268c134 0 217 -91 217 -237zM134 289h345c0 121 -63 186 -162 186c-88 0 -170 -71 -183 -186z" />
    <glyph glyph-name="uni1EBD" unicode="&#x1ebd;" 
d="M186 581c5 50 27 96 77 96c48 0 76 -55 110 -55c21 0 34 20 39 55h36c-5 -49 -27 -96 -77 -96c-49 0 -75 55 -110 55c-21 0 -34 -20 -39 -55h-36zM330 -13c-140 0 -256 100 -256 267c0 165 119 268 243 268c134 0 217 -91 217 -237c0 -14 0 -28 -2 -41h-397
c1 -122 83 -207 201 -207c62 0 110 20 156 52l22 -42c-45 -30 -101 -60 -184 -60zM134 289h345c0 121 -63 186 -162 186c-88 0 -170 -71 -183 -186z" />
    <glyph glyph-name="f" unicode="f" 
d="M253 0v461h-142v43l142 6v26c0 128 60 205 186 205c45 0 89 -8 136 -31l-15 -45c-44 23 -73 27 -117 27c-96 0 -134 -61 -134 -153v-29h217v-49h-217v-461h-56z" />
    <glyph glyph-name="g" unicode="g" 
d="M284 -231c-66 0 -131 21 -196 106l36 31c51 -74 108 -89 160 -89c100 0 157 40 158 189l1 80c-40 -45 -103 -84 -168 -84c-125 0 -210 93 -210 259c0 161 105 261 225 261c58 0 109 -28 154 -70h2l6 58h47v-510c0 -152 -81 -231 -215 -231zM286 51c52 0 105 32 156 88
v262c-51 51 -98 71 -146 71c-94 0 -171 -90 -171 -210c0 -127 60 -211 161 -211z" />
    <glyph glyph-name="gbreve" unicode="&#x11f;" 
d="M300 575c-84 0 -117 70 -124 126h40c6 -43 32 -86 84 -86s78 43 84 86h40c-6 -56 -40 -126 -124 -126zM284 -231c-66 0 -131 21 -196 106l36 31c51 -74 108 -89 160 -89c100 0 157 40 158 189l1 80c-40 -45 -103 -84 -168 -84c-125 0 -210 93 -210 259
c0 161 105 261 225 261c58 0 109 -28 154 -70h2l6 58h47v-510c0 -152 -81 -231 -215 -231zM286 51c52 0 105 32 156 88v262c-51 51 -98 71 -146 71c-94 0 -171 -90 -171 -210c0 -127 60 -211 161 -211z" />
    <glyph glyph-name="gcaron" unicode="&#x1e7;" 
d="M275 573l-96 141h47l72 -101h4l72 101h47l-96 -141h-50zM284 -231c-66 0 -131 21 -196 106l36 31c51 -74 108 -89 160 -89c100 0 157 40 158 189l1 80c-40 -45 -103 -84 -168 -84c-125 0 -210 93 -210 259c0 161 105 261 225 261c58 0 109 -28 154 -70h2l6 58h47v-510
c0 -152 -81 -231 -215 -231zM286 51c52 0 105 32 156 88v262c-51 51 -98 71 -146 71c-94 0 -171 -90 -171 -210c0 -127 60 -211 161 -211z" />
    <glyph glyph-name="gcircumflex" unicode="&#x11d;" 
d="M179 573l96 141h50l96 -141h-47l-72 100h-4l-72 -100h-47zM284 -231c-66 0 -131 21 -196 106l36 31c51 -74 108 -89 160 -89c100 0 157 40 158 189l1 80c-40 -45 -103 -84 -168 -84c-125 0 -210 93 -210 259c0 161 105 261 225 261c58 0 109 -28 154 -70h2l6 58h47v-510
c0 -152 -81 -231 -215 -231zM286 51c52 0 105 32 156 88v262c-51 51 -98 71 -146 71c-94 0 -171 -90 -171 -210c0 -127 60 -211 161 -211z" />
    <glyph glyph-name="gdotaccent" unicode="&#x121;" 
d="M300 638c-32 0 -59 25 -59 58c0 36 27 60 59 60s59 -24 59 -60c0 -33 -27 -58 -59 -58zM284 -231c-66 0 -131 21 -196 106l36 31c51 -74 108 -89 160 -89c100 0 157 40 158 189l1 80c-40 -45 -103 -84 -168 -84c-125 0 -210 93 -210 259c0 161 105 261 225 261
c58 0 109 -28 154 -70h2l6 58h47v-510c0 -152 -81 -231 -215 -231zM286 51c52 0 105 32 156 88v262c-51 51 -98 71 -146 71c-94 0 -171 -90 -171 -210c0 -127 60 -211 161 -211z" />
    <glyph glyph-name="uni1E21" unicode="&#x1e21;" 
d="M183 604v44h234v-44h-234zM284 -231c-66 0 -131 21 -196 106l36 31c51 -74 108 -89 160 -89c100 0 157 40 158 189l1 80c-40 -45 -103 -84 -168 -84c-125 0 -210 93 -210 259c0 161 105 261 225 261c58 0 109 -28 154 -70h2l6 58h47v-510c0 -152 -81 -231 -215 -231z
M286 51c52 0 105 32 156 88v262c-51 51 -98 71 -146 71c-94 0 -171 -90 -171 -210c0 -127 60 -211 161 -211z" />
    <glyph glyph-name="h" unicode="h" 
d="M101 0v729h58v-186l-3 -131c57 65 114 110 190 110c117 0 171 -68 171 -204v-318h-58v310c0 108 -37 161 -127 161c-64 0 -108 -35 -173 -109v-362h-58z" />
    <glyph glyph-name="hbar" unicode="&#x127;" 
d="M101 0v582h-76v35l76 5v107h58v-107h223v-40h-223v-60l-3 -131c57 64 114 110 190 110c117 0 171 -68 171 -204v-297h-58v289c0 108 -37 161 -127 161c-64 0 -108 -36 -173 -110v-340h-58z" />
    <glyph glyph-name="hcircumflex" unicode="&#x125;" 
d="M21 762l96 114h55l96 -114h-51l-71 76h-4l-73 -76h-48zM101 0v729h58v-186l-3 -131c57 65 114 110 190 110c117 0 171 -68 171 -204v-318h-58v310c0 108 -37 161 -127 161c-64 0 -108 -35 -173 -109v-362h-58z" />
    <glyph glyph-name="i" unicode="i" 
d="M328 644c-32 0 -59 25 -59 58c0 36 27 60 59 60s59 -24 59 -60c0 -33 -27 -58 -59 -58zM115 0v49h196v412h-196v49h253v-461h197v-49h-450z" />
    <glyph glyph-name="dotlessi" unicode="&#x131;" 
d="M115 0v49h196v412h-196v49h253v-461h197v-49h-450z" />
    <glyph glyph-name="iacute" unicode="&#xed;" 
d="M249 579l91 141h67l-111 -141h-47zM115 0v49h196v412h-196v49h253v-461h197v-49h-450z" />
    <glyph glyph-name="ibreve" unicode="&#x12d;" 
d="M328 581c-84 0 -117 70 -124 126h40c6 -43 32 -86 84 -86s78 43 84 86h40c-6 -56 -40 -126 -124 -126zM115 0v49h196v412h-196v49h253v-461h197v-49h-450z" />
    <glyph glyph-name="uni01D0" unicode="&#x1d0;" 
d="M303 579l-96 141h47l72 -101h4l72 101h47l-96 -141h-50zM115 0v49h196v412h-196v49h253v-461h197v-49h-450z" />
    <glyph glyph-name="icircumflex" unicode="&#xee;" 
d="M207 579l96 141h50l96 -141h-47l-72 100h-4l-72 -100h-47zM115 0v49h196v412h-196v49h253v-461h197v-49h-450z" />
    <glyph glyph-name="idieresis" unicode="&#xef;" 
d="M237 600c-27 0 -45 21 -45 46c0 27 18 47 45 47c25 0 45 -20 45 -47c0 -25 -20 -46 -45 -46zM419 600c-25 0 -45 21 -45 46c0 27 20 47 45 47c27 0 45 -20 45 -47c0 -25 -18 -46 -45 -46zM115 0v49h196v412h-196v49h253v-461h197v-49h-450z" />
    <glyph glyph-name="igrave" unicode="&#xec;" 
d="M361 579l-111 141h67l91 -141h-47zM115 0v49h196v412h-196v49h253v-461h197v-49h-450z" />
    <glyph glyph-name="imacron" unicode="&#x12b;" 
d="M211 610v44h234v-44h-234zM115 0v49h196v412h-196v49h253v-461h197v-49h-450z" />
    <glyph glyph-name="iogonek" unicode="&#x12f;" 
d="M328 644c-32 0 -59 25 -59 58c0 36 27 60 59 60s59 -24 59 -60c0 -33 -27 -58 -59 -58zM115 0v49h196v412h-196v49h253v-461h197v-49h-450zM362 -209c-47 0 -84 29 -84 83c0 52 35 98 71 125h49c-46 -33 -74 -73 -74 -116c0 -32 23 -49 48 -49c17 0 30 5 42 14l18 -32
c-16 -13 -48 -25 -70 -25z" />
    <glyph glyph-name="itilde" unicode="&#x129;" 
d="M197 587c5 50 27 96 77 96c48 0 76 -55 110 -55c21 0 34 20 39 55h36c-5 -49 -27 -96 -77 -96c-49 0 -75 55 -110 55c-21 0 -34 -20 -39 -55h-36zM115 0v49h196v412h-196v49h253v-461h197v-49h-450z" />
    <glyph glyph-name="j" unicode="j" 
d="M349 638c-32 0 -59 25 -59 58c0 36 27 60 59 60s59 -24 59 -60c0 -33 -27 -58 -59 -58zM194 -217c-48 0 -97 14 -134 34l21 44c33 -16 75 -29 115 -29c106 0 134 33 134 151v478h-236v49h294v-519c0 -127 -46 -208 -194 -208z" />
    <glyph glyph-name="uni0237" unicode="&#x237;" 
d="M194 -217c-48 0 -97 14 -134 34l21 44c33 -16 75 -29 115 -29c106 0 134 33 134 151v478h-236v49h294v-519c0 -127 -46 -208 -194 -208z" />
    <glyph glyph-name="jcircumflex" unicode="&#x135;" 
d="M228 573l96 141h50l96 -141h-47l-72 100h-4l-72 -100h-47zM194 -217c-48 0 -97 14 -134 34l21 44c33 -16 75 -29 115 -29c106 0 134 33 134 151v478h-236v49h294v-519c0 -127 -46 -208 -194 -208z" />
    <glyph glyph-name="k" unicode="k" 
d="M117 0v729h58v-516h4l292 297h69l-196 -199l226 -311h-67l-197 276l-131 -133v-143h-58z" />
    <glyph glyph-name="kgreenlandic" unicode="&#x138;" 
d="M117 0v510h58v-298l3 1l293 297h69l-196 -199l226 -311h-67l-198 274l-130 -133v-141h-58z" />
    <glyph glyph-name="l" unicode="l" 
d="M410 -13c-95 0 -148 55 -148 171v522h-174v49h232v-576c0 -80 36 -117 101 -117c30 0 59 9 97 28l16 -45c-41 -17 -74 -32 -124 -32z" />
    <glyph glyph-name="lacute" unicode="&#x13a;" 
d="M238 775l91 113h71l-111 -113h-51zM410 -13c-95 0 -148 55 -148 171v522h-174v49h232v-576c0 -80 36 -117 101 -117c30 0 59 9 97 28l16 -45c-41 -17 -74 -32 -124 -32z" />
    <glyph glyph-name="lcaron" unicode="&#x13e;" 
d="M398 550l-4 220h46l-1 -55l-10 -165h-31zM410 -13c-95 0 -148 55 -148 171v522h-174v49h232v-576c0 -80 36 -117 101 -117c30 0 59 9 97 28l16 -45c-41 -17 -74 -32 -124 -32z" />
    <glyph glyph-name="ldot" unicode="&#x140;" 
d="M375 -13c-95 0 -147 55 -147 171v522h-175v49h232v-576c0 -80 36 -117 102 -117c28 0 58 9 96 28l17 -45c-42 -17 -75 -32 -125 -32zM424 310c-29 0 -54 20 -54 53c0 35 25 55 54 55c31 0 54 -20 54 -55c0 -33 -23 -53 -54 -53z" />
    <glyph glyph-name="lslash" unicode="&#x142;" 
d="M410 -13c-95 0 -148 55 -148 171v218l-128 -79v54l128 78v251h-174v49h232v-268l169 101v-54l-169 -102v-253c0 -80 36 -117 101 -117c30 0 59 9 97 28l16 -45c-41 -17 -74 -32 -124 -32z" />
    <glyph glyph-name="m" unicode="m" 
d="M69 0v510h47l5 -69h3c26 49 56 81 110 81c51 0 82 -29 94 -90c33 57 64 90 117 90c66 0 105 -52 105 -154v-368h-57v362c0 73 -21 109 -63 109c-41 0 -67 -30 -96 -91v-380h-49v362c0 73 -22 109 -65 109c-39 0 -65 -30 -94 -91v-380h-57z" />
    <glyph glyph-name="n" unicode="n" 
d="M101 0v510h48l6 -96h4c54 63 111 108 187 108c117 0 171 -68 171 -204v-318h-58v310c0 108 -37 161 -127 161c-64 0 -108 -35 -173 -109v-362h-58z" />
    <glyph glyph-name="nacute" unicode="&#x144;" 
d="M231 573l91 141h67l-111 -141h-47zM101 0v510h48l6 -96h4c54 63 111 108 187 108c117 0 171 -68 171 -204v-318h-58v310c0 108 -37 161 -127 161c-64 0 -108 -35 -173 -109v-362h-58z" />
    <glyph glyph-name="ncaron" unicode="&#x148;" 
d="M285 573l-96 141h47l72 -101h4l72 101h47l-96 -141h-50zM101 0v510h48l6 -96h4c54 63 111 108 187 108c117 0 171 -68 171 -204v-318h-58v310c0 108 -37 161 -127 161c-64 0 -108 -35 -173 -109v-362h-58z" />
    <glyph glyph-name="uni1E45" unicode="&#x1e45;" 
d="M310 638c-32 0 -59 25 -59 58c0 36 27 60 59 60s59 -24 59 -60c0 -33 -27 -58 -59 -58zM101 0v510h48l6 -96h4c54 63 111 108 187 108c117 0 171 -68 171 -204v-318h-58v310c0 108 -37 161 -127 161c-64 0 -108 -35 -173 -109v-362h-58z" />
    <glyph glyph-name="ntilde" unicode="&#xf1;" 
d="M179 581c5 50 27 96 77 96c48 0 76 -55 110 -55c21 0 34 20 39 55h36c-5 -49 -27 -96 -77 -96c-49 0 -75 55 -110 55c-21 0 -34 -20 -39 -55h-36zM101 0v510h48l6 -96h4c54 63 111 108 187 108c117 0 171 -68 171 -204v-318h-58v310c0 108 -37 161 -127 161
c-64 0 -108 -35 -173 -109v-362h-58z" />
    <glyph glyph-name="o" unicode="o" 
d="M300 -13c-127 0 -235 98 -235 267c0 171 108 268 235 268s235 -97 235 -268c0 -169 -108 -267 -235 -267zM300 36c102 0 175 88 175 218s-73 219 -175 219s-175 -89 -175 -219s73 -218 175 -218z" />
    <glyph glyph-name="oacute" unicode="&#xf3;" 
d="M221 573l91 141h67l-111 -141h-47zM300 -13c-127 0 -235 98 -235 267c0 171 108 268 235 268s235 -97 235 -268c0 -169 -108 -267 -235 -267zM300 36c102 0 175 88 175 218s-73 219 -175 219s-175 -89 -175 -219s73 -218 175 -218z" />
    <glyph glyph-name="obreve" unicode="&#x14f;" 
d="M300 575c-84 0 -117 70 -124 126h40c6 -43 32 -86 84 -86s78 43 84 86h40c-6 -56 -40 -126 -124 -126zM300 -13c-127 0 -235 98 -235 267c0 171 108 268 235 268s235 -97 235 -268c0 -169 -108 -267 -235 -267zM300 36c102 0 175 88 175 218s-73 219 -175 219
s-175 -89 -175 -219s73 -218 175 -218z" />
    <glyph glyph-name="uni01D2" unicode="&#x1d2;" 
d="M275 573l-96 141h47l72 -101h4l72 101h47l-96 -141h-50zM300 -13c-127 0 -235 98 -235 267c0 171 108 268 235 268s235 -97 235 -268c0 -169 -108 -267 -235 -267zM300 36c102 0 175 88 175 218s-73 219 -175 219s-175 -89 -175 -219s73 -218 175 -218z" />
    <glyph glyph-name="ocircumflex" unicode="&#xf4;" 
d="M179 573l96 141h50l96 -141h-47l-72 100h-4l-72 -100h-47zM300 -13c-127 0 -235 98 -235 267c0 171 108 268 235 268s235 -97 235 -268c0 -169 -108 -267 -235 -267zM300 36c102 0 175 88 175 218s-73 219 -175 219s-175 -89 -175 -219s73 -218 175 -218z" />
    <glyph glyph-name="odieresis" unicode="&#xf6;" 
d="M209 594c-27 0 -45 21 -45 46c0 27 18 47 45 47c25 0 45 -20 45 -47c0 -25 -20 -46 -45 -46zM391 594c-25 0 -45 21 -45 46c0 27 20 47 45 47c27 0 45 -20 45 -47c0 -25 -18 -46 -45 -46zM300 -13c-127 0 -235 98 -235 267c0 171 108 268 235 268s235 -97 235 -268
c0 -169 -108 -267 -235 -267zM300 36c102 0 175 88 175 218s-73 219 -175 219s-175 -89 -175 -219s73 -218 175 -218z" />
    <glyph glyph-name="ograve" unicode="&#xf2;" 
d="M333 573l-111 141h67l91 -141h-47zM300 -13c-127 0 -235 98 -235 267c0 171 108 268 235 268s235 -97 235 -268c0 -169 -108 -267 -235 -267zM300 36c102 0 175 88 175 218s-73 219 -175 219s-175 -89 -175 -219s73 -218 175 -218z" />
    <glyph glyph-name="ohungarumlaut" unicode="&#x151;" 
d="M167 570l71 140h56l-85 -140h-42zM306 570l71 140h55l-85 -140h-41zM300 -13c-127 0 -235 98 -235 267c0 171 108 268 235 268s235 -97 235 -268c0 -169 -108 -267 -235 -267zM300 36c102 0 175 88 175 218s-73 219 -175 219s-175 -89 -175 -219s73 -218 175 -218z" />
    <glyph glyph-name="omacron" unicode="&#x14d;" 
d="M183 604v44h234v-44h-234zM300 -13c-127 0 -235 98 -235 267c0 171 108 268 235 268s235 -97 235 -268c0 -169 -108 -267 -235 -267zM300 36c102 0 175 88 175 218s-73 219 -175 219s-175 -89 -175 -219s73 -218 175 -218z" />
    <glyph glyph-name="uni01EB" unicode="&#x1eb;" 
d="M346 -9c-36 -31 -58 -66 -58 -104c0 -32 23 -49 48 -49c17 0 30 5 42 14l18 -32c-16 -13 -48 -25 -70 -25c-47 0 -84 29 -84 83c0 43 23 81 52 109c-124 3 -229 101 -229 267c0 171 108 268 235 268s235 -97 235 -268c0 -148 -83 -242 -189 -263zM125 254
c0 -130 73 -218 175 -218s175 88 175 218s-73 219 -175 219s-175 -89 -175 -219z" />
    <glyph glyph-name="oslash" unicode="&#xf8;" 
d="M98 -23l-30 25l55 68c-35 45 -58 107 -58 184c0 171 108 268 235 268c56 0 108 -20 149 -55l53 66l31 -25l-56 -69c36 -45 58 -109 58 -185c0 -169 -108 -267 -235 -267c-55 0 -108 19 -149 54zM160 112l253 314c-29 30 -68 48 -113 48c-102 0 -175 -90 -175 -220
c0 -57 13 -105 35 -142zM300 35c102 0 175 89 175 219c0 55 -13 106 -35 144l-254 -314c30 -30 69 -49 114 -49z" />
    <glyph glyph-name="otilde" unicode="&#xf5;" 
d="M169 581c5 50 27 96 77 96c48 0 76 -55 110 -55c21 0 34 20 39 55h36c-5 -49 -27 -96 -77 -96c-49 0 -75 55 -110 55c-21 0 -34 -20 -39 -55h-36zM300 -13c-127 0 -235 98 -235 267c0 171 108 268 235 268s235 -97 235 -268c0 -169 -108 -267 -235 -267zM300 36
c102 0 175 88 175 218s-73 219 -175 219s-175 -89 -175 -219s73 -218 175 -218z" />
    <glyph glyph-name="oe" unicode="&#x153;" 
d="M184 -13c-99 0 -173 98 -173 268s74 267 172 267c64 0 115 -50 142 -138c27 85 70 138 138 138c89 0 135 -104 135 -227c0 -16 0 -30 -2 -51h-248c2 -122 44 -210 125 -210c37 0 62 17 89 36l22 -39c-29 -20 -65 -44 -113 -44c-67 0 -118 47 -147 134
c-27 -87 -77 -134 -140 -134zM347 287h201c0 99 -22 188 -89 188c-69 0 -103 -77 -112 -188zM185 35c69 0 116 92 116 220c0 129 -47 217 -116 217c-77 0 -118 -88 -118 -217c0 -128 41 -220 118 -220z" />
    <glyph glyph-name="p" unicode="p" 
d="M101 -205v715h48l6 -71h3c47 48 113 83 175 83c134 0 202 -101 202 -260c0 -173 -104 -275 -223 -275c-45 0 -107 27 -154 71l1 -102v-161h-58zM305 37c99 0 170 91 170 225c0 122 -44 210 -154 210c-47 0 -105 -29 -162 -89v-274c52 -51 110 -72 146 -72z" />
    <glyph glyph-name="thorn" unicode="&#xfe;" 
d="M101 -213v873h58v-128l-2 -96c50 52 114 86 174 86c134 0 204 -101 204 -260c0 -173 -106 -275 -223 -275c-48 0 -106 28 -154 71l1 -102v-169h-58zM305 37c97 0 170 91 170 225c0 122 -46 210 -155 210c-48 0 -104 -29 -161 -89v-274c53 -51 109 -72 146 -72z" />
    <glyph glyph-name="q" unicode="q" 
d="M442 -205v180l3 98c-46 -46 -105 -86 -168 -86c-128 0 -212 96 -212 267c0 164 107 268 224 268c60 0 107 -26 155 -70h2l6 58h47v-715h-57zM286 37c53 0 106 31 156 90v274c-51 51 -98 71 -145 71c-96 0 -172 -94 -172 -218c0 -131 60 -217 161 -217z" />
    <glyph glyph-name="r" unicode="r" 
d="M157 0v510h49l5 -126h3c52 82 129 138 223 138c33 0 66 -4 96 -21l-15 -52c-35 15 -52 19 -91 19c-77 0 -148 -42 -212 -155v-313h-58z" />
    <glyph glyph-name="racute" unicode="&#x155;" 
d="M221 573l91 141h67l-111 -141h-47zM157 0v510h49l5 -126h3c52 82 129 138 223 138c33 0 66 -4 96 -21l-15 -52c-35 15 -52 19 -91 19c-77 0 -148 -42 -212 -155v-313h-58z" />
    <glyph glyph-name="rcaron" unicode="&#x159;" 
d="M275 573l-96 141h47l72 -101h4l72 101h47l-96 -141h-50zM157 0v510h49l5 -126h3c52 82 129 138 223 138c33 0 66 -4 96 -21l-15 -52c-35 15 -52 19 -91 19c-77 0 -148 -42 -212 -155v-313h-58z" />
    <glyph glyph-name="s" unicode="s" 
d="M315 -13c-97 0 -178 37 -236 80l30 40c53 -44 114 -72 209 -72s143 43 143 96c0 43 -33 76 -167 110c-105 27 -188 75 -188 142c0 76 64 139 195 139c67 0 141 -28 188 -62l-31 -41c-42 33 -95 56 -158 56c-102 0 -133 -43 -133 -89s61 -75 156 -100
c143 -38 198 -79 198 -151c0 -80 -74 -148 -206 -148z" />
    <glyph glyph-name="sacute" unicode="&#x15b;" 
d="M221 573l91 141h67l-111 -141h-47zM315 -13c-97 0 -178 37 -236 80l30 40c53 -44 114 -72 209 -72s143 43 143 96c0 43 -33 76 -167 110c-105 27 -188 75 -188 142c0 76 64 139 195 139c67 0 141 -28 188 -62l-31 -41c-42 33 -95 56 -158 56c-102 0 -133 -43 -133 -89
s61 -75 156 -100c143 -38 198 -79 198 -151c0 -80 -74 -148 -206 -148z" />
    <glyph glyph-name="scaron" unicode="&#x161;" 
d="M276 573l-96 141h47l72 -101h4l72 101h47l-96 -141h-50zM315 -13c-97 0 -178 37 -236 80l30 40c53 -44 114 -72 209 -72s143 43 143 96c0 43 -33 76 -167 110c-105 27 -188 75 -188 142c0 76 64 139 195 139c67 0 141 -28 188 -62l-31 -41c-42 33 -95 56 -158 56
c-102 0 -133 -43 -133 -89s61 -75 156 -100c143 -38 198 -79 198 -151c0 -80 -74 -148 -206 -148z" />
    <glyph glyph-name="scedilla" unicode="&#x15f;" 
d="M521 135c0 -77 -69 -143 -191 -148l-20 -40c33 -11 59 -29 59 -70c0 -53 -64 -79 -131 -87l-7 34c53 8 90 22 90 50c0 29 -25 42 -65 51l32 63c-85 6 -157 40 -209 79l30 40c53 -44 114 -72 209 -72s143 43 143 96c0 43 -33 76 -167 110c-105 27 -188 75 -188 142
c0 76 64 139 195 139c67 0 141 -28 188 -62l-31 -41c-42 33 -95 56 -158 56c-102 0 -133 -43 -133 -89s61 -75 156 -100c143 -38 198 -79 198 -151z" />
    <glyph glyph-name="scircumflex" unicode="&#x15d;" 
d="M180 573l96 141h50l96 -141h-47l-72 100h-4l-72 -100h-47zM315 -13c-97 0 -178 37 -236 80l30 40c53 -44 114 -72 209 -72s143 43 143 96c0 43 -33 76 -167 110c-105 27 -188 75 -188 142c0 76 64 139 195 139c67 0 141 -28 188 -62l-31 -41c-42 33 -95 56 -158 56
c-102 0 -133 -43 -133 -89s61 -75 156 -100c143 -38 198 -79 198 -151c0 -80 -74 -148 -206 -148z" />
    <glyph glyph-name="uni1E61" unicode="&#x1e61;" 
d="M301 638c-32 0 -59 25 -59 58c0 36 27 60 59 60s59 -24 59 -60c0 -33 -27 -58 -59 -58zM315 -13c-97 0 -178 37 -236 80l30 40c53 -44 114 -72 209 -72s143 43 143 96c0 43 -33 76 -167 110c-105 27 -188 75 -188 142c0 76 64 139 195 139c67 0 141 -28 188 -62l-31 -41
c-42 33 -95 56 -158 56c-102 0 -133 -43 -133 -89s61 -75 156 -100c143 -38 198 -79 198 -151c0 -80 -74 -148 -206 -148z" />
    <glyph glyph-name="germandbls" unicode="&#xdf;" 
d="M403 -13c-57 0 -105 21 -146 51l27 43c39 -30 74 -46 118 -46c67 0 103 48 103 98c0 140 -219 107 -219 243c0 101 101 135 101 229c0 58 -35 102 -99 102c-80 0 -132 -44 -132 -176v-531h-58v545c0 130 77 211 191 211c98 0 155 -68 155 -148
c0 -107 -101 -143 -101 -225c0 -103 218 -71 218 -245c0 -86 -65 -151 -158 -151z" />
    <glyph glyph-name="t" unicode="t" 
d="M395 -13c-135 0 -177 83 -177 205v269h-141v49h143v150l56 46v-196h250v-49h-250v-271c0 -97 28 -153 130 -153c49 0 88 9 124 25l15 -43c-44 -18 -101 -32 -150 -32z" />
    <glyph glyph-name="tcaron" unicode="&#x165;" 
d="M398 579l-3 220h46l-1 -55l-10 -165h-32zM395 -13c-135 0 -177 83 -177 205v269h-141v49h143v150l56 46v-196h250v-49h-250v-271c0 -97 28 -153 130 -153c49 0 88 9 124 25l15 -43c-44 -18 -101 -32 -150 -32z" />
    <glyph glyph-name="uni0163" unicode="&#x163;" 
d="M351 -53c33 -11 59 -29 59 -70c0 -53 -64 -79 -131 -87l-7 34c53 8 90 22 90 50c0 29 -25 42 -65 51l35 69c-85 23 -114 97 -114 198v269h-141v49h143v150l56 46v-196h250v-49h-250v-271c0 -97 28 -153 130 -153c49 0 88 9 124 25l15 -43c-44 -18 -101 -32 -150 -32
c-8 0 -16 0 -24 1z" />
    <glyph glyph-name="uni1E97" unicode="&#x1e97;" 
d="M158 702c-27 0 -45 21 -45 46c0 27 18 47 45 47c25 0 45 -20 45 -47c0 -25 -20 -46 -45 -46zM340 702c-25 0 -45 21 -45 46c0 27 20 47 45 47c27 0 45 -20 45 -47c0 -25 -18 -46 -45 -46zM395 -13c-135 0 -177 83 -177 205v269h-141v49h143v150l56 46v-196h250v-49h-250
v-271c0 -97 28 -153 130 -153c49 0 88 9 124 25l15 -43c-44 -18 -101 -32 -150 -32z" />
    <glyph glyph-name="u" unicode="u" 
d="M255 -13c-117 0 -172 68 -172 205v318h59v-310c0 -110 36 -163 127 -163c63 0 109 36 171 111v362h58v-510h-48l-5 96h-4c-51 -63 -110 -109 -186 -109z" />
    <glyph glyph-name="uacute" unicode="&#xfa;" 
d="M221 573l91 141h67l-111 -141h-47zM255 -13c-117 0 -172 68 -172 205v318h59v-310c0 -110 36 -163 127 -163c63 0 109 36 171 111v362h58v-510h-48l-5 96h-4c-51 -63 -110 -109 -186 -109z" />
    <glyph glyph-name="ubreve" unicode="&#x16d;" 
d="M300 575c-84 0 -117 70 -124 126h40c6 -43 32 -86 84 -86s78 43 84 86h40c-6 -56 -40 -126 -124 -126zM255 -13c-117 0 -172 68 -172 205v318h59v-310c0 -110 36 -163 127 -163c63 0 109 36 171 111v362h58v-510h-48l-5 96h-4c-51 -63 -110 -109 -186 -109z" />
    <glyph glyph-name="uni01D4" unicode="&#x1d4;" 
d="M275 573l-96 141h47l72 -101h4l72 101h47l-96 -141h-50zM255 -13c-117 0 -172 68 -172 205v318h59v-310c0 -110 36 -163 127 -163c63 0 109 36 171 111v362h58v-510h-48l-5 96h-4c-51 -63 -110 -109 -186 -109z" />
    <glyph glyph-name="ucircumflex" unicode="&#xfb;" 
d="M179 573l96 141h50l96 -141h-47l-72 100h-4l-72 -100h-47zM255 -13c-117 0 -172 68 -172 205v318h59v-310c0 -110 36 -163 127 -163c63 0 109 36 171 111v362h58v-510h-48l-5 96h-4c-51 -63 -110 -109 -186 -109z" />
    <glyph glyph-name="udieresis" unicode="&#xfc;" 
d="M209 594c-27 0 -45 21 -45 46c0 27 18 47 45 47c25 0 45 -20 45 -47c0 -25 -20 -46 -45 -46zM391 594c-25 0 -45 21 -45 46c0 27 20 47 45 47c27 0 45 -20 45 -47c0 -25 -18 -46 -45 -46zM255 -13c-117 0 -172 68 -172 205v318h59v-310c0 -110 36 -163 127 -163
c63 0 109 36 171 111v362h58v-510h-48l-5 96h-4c-51 -63 -110 -109 -186 -109z" />
    <glyph glyph-name="ugrave" unicode="&#xf9;" 
d="M333 573l-111 141h67l91 -141h-47zM255 -13c-117 0 -172 68 -172 205v318h59v-310c0 -110 36 -163 127 -163c63 0 109 36 171 111v362h58v-510h-48l-5 96h-4c-51 -63 -110 -109 -186 -109z" />
    <glyph glyph-name="uhungarumlaut" unicode="&#x171;" 
d="M167 570l71 140h56l-85 -140h-42zM306 570l71 140h55l-85 -140h-41zM255 -13c-117 0 -172 68 -172 205v318h59v-310c0 -110 36 -163 127 -163c63 0 109 36 171 111v362h58v-510h-48l-5 96h-4c-51 -63 -110 -109 -186 -109z" />
    <glyph glyph-name="umacron" unicode="&#x16b;" 
d="M183 604v44h234v-44h-234zM255 -13c-117 0 -172 68 -172 205v318h59v-310c0 -110 36 -163 127 -163c63 0 109 36 171 111v362h58v-510h-48l-5 96h-4c-51 -63 -110 -109 -186 -109z" />
    <glyph glyph-name="uogonek" unicode="&#x173;" 
d="M522 -148l18 -32c-16 -13 -48 -25 -70 -25c-47 0 -84 29 -84 83c0 50 33 95 67 122h-3l-5 96h-4c-51 -63 -110 -109 -186 -109c-117 0 -172 68 -172 205v318h59v-310c0 -110 36 -163 127 -163c63 0 109 36 171 111v362h58v-507h8c-46 -33 -74 -73 -74 -116
c0 -32 23 -49 48 -49c17 0 30 5 42 14z" />
    <glyph glyph-name="uring" unicode="&#x16f;" 
d="M300 540c-49 0 -85 36 -85 89s36 89 85 89s86 -36 86 -89s-37 -89 -86 -89zM300 570c29 0 51 23 51 59c0 35 -22 58 -51 58c-28 0 -51 -23 -51 -58c0 -36 23 -59 51 -59zM255 -13c-117 0 -172 68 -172 205v318h59v-310c0 -110 36 -163 127 -163c63 0 109 36 171 111v362
h58v-510h-48l-5 96h-4c-51 -63 -110 -109 -186 -109z" />
    <glyph glyph-name="utilde" unicode="&#x169;" 
d="M169 581c5 50 27 96 77 96c48 0 76 -55 110 -55c21 0 34 20 39 55h36c-5 -49 -27 -96 -77 -96c-49 0 -75 55 -110 55c-21 0 -34 -20 -39 -55h-36zM255 -13c-117 0 -172 68 -172 205v318h59v-310c0 -110 36 -163 127 -163c63 0 109 36 171 111v362h58v-510h-48l-5 96h-4
c-51 -63 -110 -109 -186 -109z" />
    <glyph glyph-name="v" unicode="v" 
d="M270 0l-211 510h58l125 -311c21 -51 41 -102 59 -146h4c17 44 35 95 56 146l125 311h56l-209 -510h-63z" />
    <glyph glyph-name="w" unicode="w" 
d="M129 0l-119 510h61l70 -321c10 -47 20 -92 27 -137h4c10 45 19 90 31 137l70 307h57l70 -307c12 -47 22 -92 33 -137h4c9 45 18 90 28 137l69 321h57l-117 -510h-73l-69 297c-10 48 -18 96 -30 146h-4c-9 -46 -18 -93 -30 -147l-67 -296h-72z" />
    <glyph glyph-name="wacute" unicode="&#x1e83;" 
d="M221 573l91 141h67l-111 -141h-47zM129 0l-119 510h61l70 -321c10 -47 20 -92 27 -137h4c10 45 19 90 31 137l70 307h57l70 -307c12 -47 22 -92 33 -137h4c9 45 18 90 28 137l69 321h57l-117 -510h-73l-69 297c-10 48 -18 96 -30 146h-4c-9 -46 -18 -93 -30 -147
l-67 -296h-72z" />
    <glyph glyph-name="wcircumflex" unicode="&#x175;" 
d="M179 573l96 141h50l96 -141h-47l-72 100h-4l-72 -100h-47zM129 0l-119 510h61l70 -321c10 -47 20 -92 27 -137h4c10 45 19 90 31 137l70 307h57l70 -307c12 -47 22 -92 33 -137h4c9 45 18 90 28 137l69 321h57l-117 -510h-73l-69 297c-10 48 -18 96 -30 146h-4
c-9 -46 -18 -93 -30 -147l-67 -296h-72z" />
    <glyph glyph-name="wdieresis" unicode="&#x1e85;" 
d="M209 594c-27 0 -45 21 -45 46c0 27 18 47 45 47c25 0 45 -20 45 -47c0 -25 -20 -46 -45 -46zM391 594c-25 0 -45 21 -45 46c0 27 20 47 45 47c27 0 45 -20 45 -47c0 -25 -18 -46 -45 -46zM129 0l-119 510h61l70 -321c10 -47 20 -92 27 -137h4c10 45 19 90 31 137l70 307
h57l70 -307c12 -47 22 -92 33 -137h4c9 45 18 90 28 137l69 321h57l-117 -510h-73l-69 297c-10 48 -18 96 -30 146h-4c-9 -46 -18 -93 -30 -147l-67 -296h-72z" />
    <glyph glyph-name="wgrave" unicode="&#x1e81;" 
d="M333 573l-111 141h67l91 -141h-47zM129 0l-119 510h61l70 -321c10 -47 20 -92 27 -137h4c10 45 19 90 31 137l70 307h57l70 -307c12 -47 22 -92 33 -137h4c9 45 18 90 28 137l69 321h57l-117 -510h-73l-69 297c-10 48 -18 96 -30 146h-4c-9 -46 -18 -93 -30 -147
l-67 -296h-72z" />
    <glyph glyph-name="x" unicode="x" 
d="M74 0l190 264l-175 246h66l87 -127c18 -26 38 -56 59 -84h4c20 28 42 59 60 89l84 122h62l-177 -249l191 -261h-65l-95 132c-21 30 -45 65 -67 94h-4c-22 -30 -43 -61 -65 -94l-92 -132h-63z" />
    <glyph glyph-name="y" unicode="y" 
d="M127 -217c-21 0 -44 4 -60 10l14 47c13 -4 30 -7 46 -7c72 0 115 43 147 126l13 34l-231 517h59l133 -311l63 -145h4c19 48 38 101 55 145l118 311h56l-219 -559c-35 -87 -94 -168 -198 -168z" />
    <glyph glyph-name="yacute" unicode="&#xfd;" 
d="M231 573l91 141h67l-111 -141h-47zM127 -217c-21 0 -44 4 -60 10l14 47c13 -4 30 -7 46 -7c72 0 115 43 147 126l13 34l-231 517h59l133 -311l63 -145h4c19 48 38 101 55 145l118 311h56l-219 -559c-35 -87 -94 -168 -198 -168z" />
    <glyph glyph-name="ycircumflex" unicode="&#x177;" 
d="M189 573l96 141h50l96 -141h-47l-72 100h-4l-72 -100h-47zM127 -217c-21 0 -44 4 -60 10l14 47c13 -4 30 -7 46 -7c72 0 115 43 147 126l13 34l-231 517h59l133 -311l63 -145h4c19 48 38 101 55 145l118 311h56l-219 -559c-35 -87 -94 -168 -198 -168z" />
    <glyph glyph-name="ydieresis" unicode="&#xff;" 
d="M219 594c-27 0 -45 21 -45 46c0 27 18 47 45 47c25 0 45 -20 45 -47c0 -25 -20 -46 -45 -46zM401 594c-25 0 -45 21 -45 46c0 27 20 47 45 47c27 0 45 -20 45 -47c0 -25 -18 -46 -45 -46zM127 -217c-21 0 -44 4 -60 10l14 47c13 -4 30 -7 46 -7c72 0 115 43 147 126
l13 34l-231 517h59l133 -311l63 -145h4c19 48 38 101 55 145l118 311h56l-219 -559c-35 -87 -94 -168 -198 -168z" />
    <glyph glyph-name="uni1E8F" unicode="&#x1e8f;" 
d="M310 638c-32 0 -59 25 -59 58c0 36 27 60 59 60s59 -24 59 -60c0 -33 -27 -58 -59 -58zM127 -217c-21 0 -44 4 -60 10l14 47c13 -4 30 -7 46 -7c72 0 115 43 147 126l13 34l-231 517h59l133 -311l63 -145h4c19 48 38 101 55 145l118 311h56l-219 -559
c-35 -87 -94 -168 -198 -168z" />
    <glyph glyph-name="ygrave" unicode="&#x1ef3;" 
d="M343 573l-111 141h67l91 -141h-47zM127 -217c-21 0 -44 4 -60 10l14 47c13 -4 30 -7 46 -7c72 0 115 43 147 126l13 34l-231 517h59l133 -311l63 -145h4c19 48 38 101 55 145l118 311h56l-219 -559c-35 -87 -94 -168 -198 -168z" />
    <glyph glyph-name="uni1EF9" unicode="&#x1ef9;" 
d="M173 614c4 51 26 100 76 100c49 0 76 -57 110 -57c21 0 34 21 39 57h36c-5 -50 -27 -100 -77 -100c-49 0 -74 59 -108 59c-23 0 -34 -21 -41 -59h-35zM127 -225c-21 0 -44 4 -60 10l14 47c13 -4 30 -7 46 -7c72 0 116 50 145 126l15 42l-231 517h59l133 -311l63 -145h4
c19 48 38 101 55 145l118 311h56l-220 -567c-34 -87 -93 -168 -197 -168z" />
    <glyph glyph-name="z" unicode="z" 
d="M71 0v31l361 430h-322v49h408v-31l-362 -430h373v-49h-458z" />
    <glyph glyph-name="zacute" unicode="&#x17a;" 
d="M260 606l91 148h67l-111 -148h-47zM71 0v31l361 430h-322v49h408v-31l-362 -430h373v-49h-458z" />
    <glyph glyph-name="zcaron" unicode="&#x17e;" 
d="M275 573l-96 141h47l72 -101h4l72 101h47l-96 -141h-50zM71 0v31l361 430h-322v49h408v-31l-362 -430h373v-49h-458z" />
    <glyph glyph-name="zdotaccent" unicode="&#x17c;" 
d="M300 638c-32 0 -59 25 -59 58c0 36 27 60 59 60s59 -24 59 -60c0 -33 -27 -58 -59 -58zM71 0v31l361 430h-322v49h408v-31l-362 -430h373v-49h-458z" />
    <glyph glyph-name="ordfeminine" unicode="&#xaa;" 
d="M274 252c-55 0 -102 33 -102 91c0 70 70 104 217 119c-1 45 -17 86 -75 86c-42 0 -80 -19 -108 -36l-20 34c30 18 81 41 134 41c83 0 118 -52 118 -129v-198h-40l-4 39h-2c-33 -26 -74 -47 -118 -47zM288 291c33 0 66 17 101 45v93c-122 -13 -168 -40 -168 -84
c0 -37 30 -54 67 -54z" />
    <glyph glyph-name="ordmasculine" unicode="&#xba;" 
d="M300 252c-82 0 -155 62 -155 168s73 167 155 167c84 0 155 -61 155 -167s-71 -168 -155 -168zM300 293c62 0 104 51 104 127c0 74 -42 127 -104 127c-63 0 -104 -53 -104 -127c0 -76 41 -127 104 -127z" />
    <glyph glyph-name="pi" unicode="&#x3c0;" 
d="M491 -13c-63 0 -90 35 -90 107c0 63 4 243 6 365h-209c0 -152 -5 -308 -14 -463l-59 4c15 155 18 311 18 459h-95v45l69 6h435v-51h-89c-6 -127 -7 -310 -7 -371c0 -36 14 -52 45 -52c6 0 15 2 29 8l8 -47c-13 -5 -25 -10 -47 -10z" />
    <glyph glyph-name="zero" unicode="0" 
d="M300 -12c-140 0 -223 127 -223 344c0 220 83 340 223 340s223 -120 223 -340c0 -217 -83 -344 -223 -344zM300 36c99 0 167 100 167 296c0 198 -68 292 -167 292s-167 -94 -167 -292c0 -196 68 -296 167 -296zM300 276c-30 0 -57 23 -57 65c0 41 27 64 57 64
s57 -23 57 -64c0 -42 -27 -65 -57 -65z" />
    <glyph glyph-name="one" unicode="1" 
d="M104 0v49h187v528h-137v39c65 9 114 25 152 44h43v-611h176v-49h-421z" />
    <glyph glyph-name="two" unicode="2" 
d="M79 0v36c228 213 346 330 346 447c0 78 -47 140 -152 140c-63 0 -119 -36 -162 -84l-35 35c53 57 116 98 203 98c127 0 202 -75 202 -189c0 -128 -123 -253 -316 -437c40 3 80 5 120 5h232v-51h-438z" />
    <glyph glyph-name="three" unicode="3" 
d="M290 -12c-110 0 -181 46 -227 93l32 39c42 -43 102 -83 193 -83c94 0 166 55 166 137c0 88 -72 146 -247 146v49c161 0 223 61 223 136c0 72 -58 118 -143 118c-64 0 -124 -30 -165 -71l-33 37c50 47 117 83 199 83c114 0 203 -59 203 -162c0 -84 -62 -136 -142 -161v-5
c87 -17 164 -76 164 -169c0 -115 -99 -187 -223 -187z" />
    <glyph glyph-name="four" unicode="4" 
d="M378 0v192h-337v37l267 431h63l-259 -420h266v193h56v-193h106v-48h-106v-192h-56z" />
    <glyph glyph-name="five" unicode="5" 
d="M287 -12c-115 0 -179 46 -227 88l31 41c42 -41 96 -80 192 -80s176 69 176 170s-67 163 -172 163c-57 0 -93 -18 -139 -44l-36 23l23 311h350v-51h-298l-19 -225c40 19 76 32 131 32c124 0 219 -63 219 -208c0 -141 -112 -220 -231 -220z" />
    <glyph glyph-name="six" unicode="6" 
d="M323 -12c-143 0 -240 110 -240 314c0 271 126 370 265 370c73 0 127 -28 169 -67l-35 -37c-35 36 -82 54 -132 54c-111 0 -210 -79 -212 -315c54 56 122 93 192 93c120 0 200 -71 200 -204c0 -123 -96 -208 -207 -208zM324 36c85 0 149 69 149 160c0 99 -52 158 -152 158
c-55 0 -120 -28 -180 -99c11 -136 74 -219 183 -219z" />
    <glyph glyph-name="seven" unicode="7" 
d="M238 0c11 263 71 419 221 609h-386v51h456v-36c-172 -206 -220 -365 -228 -624h-63z" />
    <glyph glyph-name="eight" unicode="8" 
d="M303 -12c-143 0 -232 77 -232 181c0 95 74 148 143 181v4c-53 32 -98 85 -98 154c0 96 80 164 189 164c125 0 195 -73 195 -173c0 -63 -45 -123 -100 -163v-4c72 -38 128 -76 128 -172c0 -95 -82 -172 -225 -172zM355 350c60 42 92 92 92 147c0 70 -49 129 -143 129
c-80 0 -134 -49 -134 -118c0 -89 83 -125 185 -158zM304 34c109 0 166 55 166 129c0 105 -97 128 -217 170c-72 -39 -127 -84 -127 -160c0 -80 68 -139 178 -139z" />
    <glyph glyph-name="nine" unicode="9" 
d="M254 -12c-73 0 -127 26 -169 64l34 40c35 -35 81 -55 133 -55c110 0 207 80 210 313c-54 -56 -120 -90 -191 -90c-121 0 -199 70 -199 204c0 121 97 208 206 208c142 0 241 -110 241 -314c0 -271 -128 -370 -265 -370zM281 307c53 0 119 27 180 97
c-12 137 -72 220 -182 220c-86 0 -150 -68 -150 -160c0 -98 51 -157 152 -157z" />
    <glyph glyph-name="zero.alt" 
d="M300 -12c-140 0 -223 127 -223 344c0 220 83 340 223 340s223 -120 223 -340c0 -217 -83 -344 -223 -344zM155 157l260 401c-28 45 -69 66 -115 66c-99 0 -167 -94 -167 -292c0 -70 8 -130 22 -175zM300 36c99 0 167 100 167 296c0 76 -10 138 -26 185l-263 -405
c30 -51 72 -76 122 -76z" />
    <glyph glyph-name="four.alt" 
d="M378 0v192h-337v37l339 431h54v-420h106v-48h-106v-192h-56zM112 240h266v243c0 34 3 72 5 106h-5c-20 -30 -43 -60 -64 -89z" />
    <glyph glyph-name="zero.subs" 
d="M300 -182c-79 0 -136 60 -136 166c0 103 57 160 136 160c80 0 136 -57 136 -160c0 -106 -56 -166 -136 -166zM300 -143c50 0 89 44 89 127s-39 123 -89 123s-89 -40 -89 -123s39 -127 89 -127z" />
    <glyph glyph-name="one.subs" 
d="M295 -170v237h-82v34c41 7 65 17 91 31h37v-302h-46z" />
    <glyph glyph-name="two.subs" 
d="M189 -170v29c111 88 166 133 166 180c0 41 -25 66 -68 66c-30 0 -56 -19 -77 -44l-31 24c27 33 68 59 113 59c70 0 109 -35 109 -100c0 -57 -59 -106 -135 -174h152v-40h-229z" />
    <glyph glyph-name="three.subs" 
d="M298 -182c-48 0 -96 25 -123 58l28 29c20 -27 56 -48 95 -48c41 0 69 16 69 54s-34 57 -104 57v31c61 0 88 25 88 59c0 29 -18 49 -61 49c-25 0 -56 -15 -76 -38l-25 29c23 28 66 46 109 46c60 0 101 -29 101 -82c0 -38 -18 -62 -57 -76c41 -9 73 -35 73 -78
c0 -59 -51 -90 -117 -90z" />
    <glyph glyph-name="four.subs" 
d="M339 -170v77h-163v24l159 201h47v-190h50v-35h-50v-77h-43zM229 -58h110v69l3 75h-2l-50 -66z" />
    <glyph glyph-name="five.subs" 
d="M301 -182c-59 0 -94 25 -126 58l28 29c24 -27 52 -48 96 -48c43 0 74 24 74 65c0 44 -28 67 -75 67c-29 0 -48 -11 -69 -26l-27 17l18 152h180v-41h-141l-12 -83c18 10 39 14 61 14c66 0 113 -36 113 -100c0 -63 -52 -104 -120 -104z" />
    <glyph glyph-name="six.subs" 
d="M312 -182c-72 0 -132 54 -132 146c0 123 66 180 151 180c37 0 63 -12 87 -28l-21 -34c-18 14 -39 25 -67 25c-58 0 -100 -41 -105 -129c27 22 59 36 96 36c71 0 103 -41 103 -95c0 -55 -46 -101 -112 -101zM313 -143c41 0 66 24 66 62c0 35 -20 62 -67 62
c-30 0 -56 -12 -86 -40c7 -59 45 -84 87 -84z" />
    <glyph glyph-name="seven.subs" 
d="M261 -170c6 108 34 178 102 262h-178v40h235v-28c-88 -96 -107 -168 -112 -274h-47z" />
    <glyph glyph-name="eight.subs" 
d="M300 -182c-73 0 -122 41 -122 87c0 42 31 66 67 82v4c-30 18 -55 38 -55 72c0 47 50 81 110 81c64 0 111 -34 111 -81c0 -38 -29 -61 -53 -75v-4c35 -14 64 -37 64 -79c0 -49 -54 -87 -122 -87zM323 1c31 19 42 38 42 61c0 27 -23 47 -65 47c-39 0 -64 -20 -64 -46
c0 -33 40 -49 87 -62zM300 -146c38 0 77 22 77 51c0 43 -49 54 -99 69c-35 -16 -55 -41 -55 -67c0 -30 35 -53 77 -53z" />
    <glyph glyph-name="nine.subs" 
d="M270 -182c-38 0 -64 13 -87 30l20 32c18 -14 39 -23 67 -23c58 0 99 41 104 128c-27 -23 -58 -37 -94 -37c-71 0 -104 42 -104 95c0 57 47 101 112 101c72 0 132 -53 132 -146c0 -123 -65 -180 -150 -180zM288 -17c30 0 56 10 85 39c-7 57 -44 85 -85 85
c-42 0 -67 -26 -67 -64c0 -35 20 -60 67 -60z" />
    <glyph glyph-name="fraction" unicode="&#x2044;" 
d="M386 396l-26 24l169 204l39 -34zM71 34l-39 34l182 194l26 -24z" />
    <glyph glyph-name="onehalf" unicode="&#xbd;" 
d="M158 336v237h-82v34c41 7 65 16 90 32h39v-303h-47zM386 396l-26 24l169 204l39 -34zM325 0v29c112 88 166 133 166 180c0 41 -24 66 -67 66c-30 0 -57 -19 -77 -44l-30 24c26 33 66 59 112 59c69 0 111 -35 111 -100c0 -57 -61 -106 -136 -174h152v-40h-231zM71 34
l-39 34l182 194l26 -24z" />
    <glyph glyph-name="uni2153" unicode="&#x2153;" 
d="M158 336v237h-82v34c41 7 65 16 90 32h39v-303h-47zM386 396l-26 24l169 204l39 -34zM436 -12c-48 0 -96 25 -124 59l29 28c20 -27 55 -48 94 -48s69 16 69 54s-35 57 -104 57v32c61 0 89 24 89 58c0 29 -19 49 -62 49c-24 0 -57 -15 -77 -38l-23 29c22 28 65 46 108 46
c59 0 101 -29 101 -82c0 -38 -18 -62 -56 -76c41 -9 72 -35 72 -78c0 -59 -50 -90 -116 -90zM71 34l-39 34l182 194l26 -24z" />
    <glyph glyph-name="uni2154" unicode="&#x2154;" 
d="M51 336v28c112 90 166 133 166 182c0 40 -24 64 -67 64c-30 0 -57 -17 -77 -44l-31 26c28 33 67 59 113 59c69 0 111 -37 111 -101c0 -58 -61 -106 -136 -173h152v-41h-231zM386 396l-26 24l169 204l39 -34zM436 -12c-48 0 -96 25 -124 59l29 28c20 -27 55 -48 94 -48
s69 16 69 54s-35 57 -104 57v32c61 0 89 24 89 58c0 29 -19 49 -62 49c-24 0 -57 -15 -77 -38l-23 29c22 28 65 46 108 46c59 0 101 -29 101 -82c0 -38 -18 -62 -56 -76c41 -9 72 -35 72 -78c0 -59 -50 -90 -116 -90zM71 34l-39 34l182 194l26 -24z" />
    <glyph glyph-name="onequarter" unicode="&#xbc;" 
d="M158 336v237h-82v34c41 7 65 16 90 32h39v-303h-47zM386 396l-26 24l169 204l39 -34zM476 0v78h-163v23l158 201h48v-190h49v-34h-49v-78h-43zM71 34l-39 34l182 194l26 -24zM365 112h111v69l5 75h-5l-49 -66z" />
    <glyph glyph-name="threequarters" unicode="&#xbe;" 
d="M162 324c-48 0 -96 25 -124 59l28 29c21 -27 56 -49 94 -49c41 0 69 16 69 53c0 39 -34 59 -103 59v31c62 0 89 24 89 57c0 29 -18 49 -62 49c-24 0 -57 -13 -77 -36l-25 29c24 28 66 46 110 46c59 0 101 -31 101 -82c0 -39 -18 -62 -56 -76c41 -9 71 -35 71 -78
c0 -59 -49 -91 -115 -91zM418 396l-26 24l170 204l38 -34zM475 0v78h-163v23l160 201h48v-190h49v-34h-49v-78h-45zM103 34l-38 34l182 194l25 -24zM366 112h109v69l5 75h-4l-48 -66z" />
    <glyph glyph-name="zero.dnom" 
d="M300 -12c-79 0 -136 61 -136 166c0 103 57 160 136 160c80 0 136 -57 136 -160c0 -105 -56 -166 -136 -166zM300 27c50 0 89 44 89 127s-39 123 -89 123s-89 -40 -89 -123s39 -127 89 -127z" />
    <glyph glyph-name="one.dnom" 
d="M295 0v237h-82v34c41 7 65 17 91 31h37v-302h-46z" />
    <glyph glyph-name="two.dnom" 
d="M188 0v29c112 88 166 133 166 180c0 41 -24 66 -66 66c-30 0 -58 -19 -78 -44l-31 24c27 33 67 59 112 59c70 0 111 -35 111 -100c0 -57 -60 -106 -136 -174h153v-40h-231z" />
    <glyph glyph-name="three.dnom" 
d="M298 -12c-48 0 -96 25 -123 59l28 28c20 -27 56 -48 95 -48c41 0 69 16 69 54s-34 57 -104 57v32c61 0 88 24 88 58c0 29 -18 49 -61 49c-25 0 -56 -15 -76 -38l-25 29c23 28 66 46 109 46c60 0 101 -29 101 -82c0 -38 -18 -62 -57 -76c41 -9 73 -35 73 -78
c0 -59 -51 -90 -117 -90z" />
    <glyph glyph-name="four.dnom" 
d="M339 0v78h-163v23l159 201h47v-190h50v-34h-50v-78h-43zM229 112h110v69l3 75h-2l-50 -66z" />
    <glyph glyph-name="five.dnom" 
d="M301 -12c-59 0 -94 25 -126 59l28 28c24 -27 52 -48 96 -48c43 0 74 25 74 65c0 44 -28 67 -75 67c-29 0 -48 -11 -69 -26l-27 17l18 152h180v-41h-141l-12 -83c18 10 39 14 61 14c66 0 113 -36 113 -99c0 -64 -52 -105 -120 -105z" />
    <glyph glyph-name="six.dnom" 
d="M313 -12c-71 0 -132 54 -132 146c0 123 66 180 151 180c38 0 63 -12 87 -28l-20 -34c-19 14 -40 25 -66 25c-60 0 -103 -42 -107 -130c27 24 58 37 96 37c71 0 104 -41 104 -95c0 -55 -46 -101 -113 -101zM314 27c43 0 66 25 66 62c0 36 -19 62 -67 62
c-29 0 -55 -12 -86 -41c8 -57 46 -83 87 -83z" />
    <glyph glyph-name="seven.dnom" 
d="M261 0c6 108 34 178 102 262h-178v40h235v-28c-88 -96 -107 -168 -112 -274h-47z" />
    <glyph glyph-name="eight.dnom" 
d="M300 -12c-73 0 -122 41 -122 87c0 42 31 66 67 82v4c-30 18 -55 38 -55 72c0 47 50 81 110 81c64 0 111 -34 111 -81c0 -38 -29 -61 -53 -75v-4c35 -13 64 -37 64 -79c0 -49 -54 -87 -122 -87zM323 171c31 19 42 38 42 61c0 27 -23 47 -65 47c-39 0 -64 -20 -64 -46
c0 -33 40 -49 87 -62zM300 24c38 0 77 22 77 51c0 43 -49 54 -99 69c-35 -16 -55 -41 -55 -67c0 -30 35 -53 77 -53z" />
    <glyph glyph-name="nine.dnom" 
d="M270 -12c-38 0 -64 13 -87 30l20 33c18 -14 39 -24 67 -24c58 0 99 41 104 128c-27 -23 -58 -37 -94 -37c-71 0 -104 42 -104 95c0 57 47 101 112 101c72 0 132 -53 132 -146c0 -123 -65 -180 -150 -180zM288 154c30 0 56 9 85 38c-7 57 -44 85 -85 85
c-42 0 -67 -26 -67 -64c0 -35 20 -59 67 -59z" />
    <glyph glyph-name="zero.numr" 
d="M300 324c-79 0 -136 61 -136 165c0 105 57 162 136 162c80 0 136 -57 136 -162c0 -104 -56 -165 -136 -165zM300 363c50 0 89 45 89 126c0 84 -39 123 -89 123s-89 -39 -89 -123c0 -81 39 -126 89 -126z" />
    <glyph glyph-name="one.numr" 
d="M295 336v237h-82v34c41 7 65 16 91 32h37v-303h-46z" />
    <glyph glyph-name="two.numr" 
d="M189 336v28c111 90 166 133 166 182c0 40 -25 64 -68 64c-30 0 -56 -17 -77 -44l-31 26c27 33 68 59 113 59c70 0 109 -37 109 -101c0 -58 -59 -106 -135 -173h152v-41h-229z" />
    <glyph glyph-name="three.numr" 
d="M298 324c-48 0 -96 25 -123 59l28 29c20 -27 56 -49 95 -49c41 0 69 16 69 53c0 39 -34 59 -104 59v31c61 0 88 24 88 57c0 29 -18 49 -61 49c-25 0 -56 -13 -76 -36l-25 29c23 28 66 46 109 46c60 0 101 -31 101 -82c0 -39 -18 -62 -57 -76c41 -9 73 -35 73 -78
c0 -59 -51 -91 -117 -91z" />
    <glyph glyph-name="four.numr" 
d="M339 336v78h-163v23l159 202h47v-192h50v-33h-50v-78h-43zM229 447h110v69l3 75h-2l-50 -64z" />
    <glyph glyph-name="five.numr" 
d="M301 324c-59 0 -94 25 -126 59l28 29c24 -27 52 -49 96 -49c43 0 74 25 74 66c0 42 -28 66 -75 66c-29 0 -48 -10 -69 -27l-27 18l18 153h180v-43h-141l-12 -83c18 11 39 16 61 16c66 0 113 -36 113 -101c0 -64 -52 -104 -120 -104z" />
    <glyph glyph-name="six.numr" 
d="M312 324c-72 0 -132 55 -132 147c0 123 66 180 151 180c37 0 63 -13 87 -30l-21 -32c-18 12 -39 23 -67 23c-58 0 -100 -41 -105 -129c27 24 59 38 96 38c71 0 103 -41 103 -96c0 -56 -46 -101 -112 -101zM313 363c41 0 66 25 66 63c0 35 -20 60 -67 60
c-30 0 -56 -10 -86 -40c7 -57 45 -83 87 -83z" />
    <glyph glyph-name="seven.numr" 
d="M261 336c6 108 34 178 102 263h-178v40h235v-29c-88 -97 -107 -169 -112 -274h-47z" />
    <glyph glyph-name="eight.numr" 
d="M300 324c-73 0 -122 41 -122 88c0 40 31 64 67 82v4c-30 17 -55 37 -55 71c0 48 50 82 110 82c64 0 111 -36 111 -82c0 -39 -29 -60 -53 -74v-4c35 -15 64 -37 64 -79c0 -51 -54 -88 -122 -88zM323 507c31 18 42 38 42 60c0 27 -23 47 -65 47c-39 0 -64 -20 -64 -46
c0 -32 40 -47 87 -61zM300 359c38 0 77 22 77 53c0 42 -49 54 -99 68c-35 -16 -55 -40 -55 -66c0 -30 35 -55 77 -55z" />
    <glyph glyph-name="nine.numr" 
d="M270 324c-38 0 -64 12 -87 29l20 33c18 -13 39 -23 67 -23c56 0 99 40 104 127c-27 -21 -58 -36 -94 -36c-71 0 -104 41 -104 96s47 101 112 101c72 0 132 -55 132 -146c0 -123 -65 -181 -150 -181zM288 489c30 0 56 10 86 38c-8 59 -45 85 -86 85c-42 0 -67 -26 -67 -62
c0 -35 20 -61 67 -61z" />
    <glyph glyph-name="zero.sups" 
d="M300 428c-79 0 -136 61 -136 166c0 103 57 160 136 160c80 0 136 -57 136 -160c0 -105 -56 -166 -136 -166zM300 467c50 0 89 44 89 127s-39 123 -89 123s-89 -40 -89 -123s39 -127 89 -127z" />
    <glyph glyph-name="one.sups" 
d="M295 440v237h-82v34c41 7 65 17 91 31h37v-302h-46z" />
    <glyph glyph-name="two.sups" 
d="M189 440v29c111 88 166 133 166 180c0 41 -25 66 -68 66c-30 0 -56 -19 -77 -44l-31 24c27 33 68 59 113 59c70 0 109 -35 109 -100c0 -57 -59 -106 -135 -174h152v-40h-229z" />
    <glyph glyph-name="three.sups" 
d="M298 428c-48 0 -96 25 -123 59l28 28c20 -27 56 -48 95 -48c41 0 69 16 69 54s-34 57 -104 57v32c61 0 88 24 88 58c0 29 -18 49 -61 49c-25 0 -56 -15 -76 -38l-25 29c23 28 66 46 109 46c60 0 101 -29 101 -82c0 -38 -18 -62 -57 -76c41 -9 73 -35 73 -78
c0 -59 -51 -90 -117 -90z" />
    <glyph glyph-name="four.sups" 
d="M339 440v78h-163v23l159 201h47v-190h50v-34h-50v-78h-43zM229 552h110v69l3 75h-2l-50 -66z" />
    <glyph glyph-name="five.sups" 
d="M301 428c-59 0 -94 25 -126 59l28 28c24 -27 52 -48 96 -48c43 0 74 25 74 65c0 44 -28 67 -75 67c-29 0 -48 -11 -69 -26l-27 17l18 152h180v-41h-141l-12 -83c18 10 39 14 61 14c66 0 113 -36 113 -99c0 -64 -52 -105 -120 -105z" />
    <glyph glyph-name="six.sups" 
d="M312 428c-72 0 -132 54 -132 146c0 123 66 180 151 180c37 0 63 -12 87 -28l-21 -34c-18 14 -39 25 -67 25c-58 0 -100 -41 -105 -129c27 22 59 36 96 36c71 0 103 -41 103 -95c0 -55 -46 -101 -112 -101zM313 467c41 0 66 25 66 62c0 36 -20 62 -67 62
c-30 0 -56 -12 -86 -40c7 -59 45 -84 87 -84z" />
    <glyph glyph-name="seven.sups" 
d="M261 440c6 108 34 178 102 262h-178v40h235v-28c-88 -96 -107 -168 -112 -274h-47z" />
    <glyph glyph-name="eight.sups" 
d="M300 428c-73 0 -122 41 -122 87c0 42 31 66 67 82v4c-30 18 -55 38 -55 72c0 47 50 81 110 81c64 0 111 -34 111 -81c0 -38 -29 -61 -53 -75v-4c35 -13 64 -37 64 -79c0 -49 -54 -87 -122 -87zM323 611c31 19 42 38 42 61c0 27 -23 47 -65 47c-39 0 -64 -20 -64 -46
c0 -33 40 -49 87 -62zM300 464c38 0 77 22 77 51c0 43 -49 54 -99 69c-35 -16 -55 -41 -55 -67c0 -30 35 -53 77 -53z" />
    <glyph glyph-name="nine.sups" 
d="M270 428c-38 0 -64 13 -87 30l20 33c18 -14 39 -24 67 -24c58 0 99 41 104 128c-27 -23 -58 -37 -94 -37c-71 0 -104 42 -104 95c0 57 47 101 112 101c72 0 132 -53 132 -146c0 -123 -65 -180 -150 -180zM288 594c30 0 56 9 85 38c-7 57 -44 85 -85 85
c-42 0 -67 -26 -67 -64c0 -35 20 -59 67 -59z" />
    <glyph glyph-name="asterisk" unicode="*" 
d="M179 119l-34 24l112 168l-165 71l13 37l169 -60l8 193h36l8 -193l169 60l14 -37l-166 -71l112 -168l-33 -24l-122 165z" />
    <glyph glyph-name="backslash" unicode="\" 
d="M486 -46l-428 756h56l428 -756h-56z" />
    <glyph glyph-name="periodcentered" unicode="&#xb7;" 
d="M300 273c-36 0 -68 27 -68 71c0 45 32 73 68 73s68 -28 68 -73c0 -44 -32 -71 -68 -71z" />
    <glyph glyph-name="bullet" unicode="&#x2022;" 
d="M300 120c-74 0 -143 56 -143 142c0 87 69 142 143 142s143 -55 143 -142c0 -86 -69 -142 -143 -142z" />
    <glyph glyph-name="colon" unicode=":" 
d="M300 359c-36 0 -68 27 -68 73c0 44 32 71 68 71s68 -27 68 -71c0 -46 -32 -73 -68 -73zM300 -12c-36 0 -68 28 -68 72c0 45 32 72 68 72s68 -27 68 -72c0 -44 -32 -72 -68 -72z" />
    <glyph glyph-name="comma" unicode="," 
d="M220 -212l-17 40c80 39 120 91 124 176c-7 -1 -15 -2 -22 -2c-38 0 -67 21 -67 65s33 66 68 66c51 0 78 -45 78 -112c0 -113 -64 -192 -164 -233z" />
    <glyph glyph-name="ellipsis" unicode="&#x2026;" 
d="M222 122c33 0 61 -25 61 -67c0 -40 -28 -67 -61 -67c-26 0 -50 17 -59 45c-8 -28 -32 -45 -57 -45c-33 0 -62 27 -62 67c0 42 29 67 62 67c25 0 49 -16 57 -44c9 28 33 44 59 44zM572 122c33 0 62 -25 62 -67c0 -40 -29 -67 -62 -67c-31 0 -60 27 -60 67
c0 42 29 67 60 67z" />
    <glyph glyph-name="exclam" unicode="!" 
d="M263 251l-4 419h85l-4 -419h-77zM300 -12c-34 0 -63 26 -63 69s29 67 63 67s63 -24 63 -67s-29 -69 -63 -69z" />
    <glyph glyph-name="exclamdown" unicode="&#xa1;" 
d="M300 358c-34 0 -63 25 -63 67c0 44 29 69 63 69s63 -25 63 -69c0 -42 -29 -67 -63 -67zM259 -188l4 419h77l4 -419h-85z" />
    <glyph glyph-name="numbersign" unicode="#" 
d="M150 0l24 210h-81v44h87l21 162h-88v44h91l26 190h41l-24 -190h142l25 190h42l-24 -190h81v-44h-85l-21 -162h86v-44h-92l-24 -210h-43l27 210h-145l-24 -210h-42zM222 254h143l21 162h-144z" />
    <glyph glyph-name="period" unicode="." 
d="M300 -12c-36 0 -68 28 -68 72c0 45 32 72 68 72s68 -27 68 -72c0 -44 -32 -72 -68 -72z" />
    <glyph glyph-name="question" unicode="?" 
d="M251 237c-25 147 163 188 163 286c0 60 -39 110 -124 110c-54 0 -102 -23 -140 -62l-37 33c44 45 104 78 180 78c110 0 179 -64 179 -153c0 -118 -189 -157 -169 -292h-52zM286 -12c-34 0 -63 26 -63 69s29 67 63 67s63 -24 63 -67s-29 -69 -63 -69z" />
    <glyph glyph-name="questiondown" unicode="&#xbf;" 
d="M315 358c-33 0 -63 25 -63 69c0 42 30 67 63 67c34 0 65 -25 65 -67c0 -44 -31 -69 -65 -69zM308 -200c-109 0 -177 64 -177 154c0 117 187 156 167 291h52c25 -146 -162 -187 -162 -286c0 -60 40 -109 125 -109c53 0 102 22 140 62l35 -35c-42 -44 -104 -77 -180 -77z
" />
    <glyph glyph-name="quotedbl" unicode="&#x22;" 
d="M170 405l-21 196l-1 87h88v-87l-23 -196h-43zM387 405l-23 196l1 87h87l-1 -87l-21 -196h-43z" />
    <glyph glyph-name="quotesingle" unicode="'" 
d="M278 405l-21 196l-1 87h88l-1 -87l-21 -196h-44z" />
    <glyph glyph-name="semicolon" unicode=";" 
d="M300 359c-36 0 -68 27 -68 73c0 44 32 71 68 71s68 -27 68 -71c0 -46 -32 -73 -68 -73zM220 -212l-17 40c80 39 120 91 124 176c-7 -1 -15 -2 -22 -2c-38 0 -67 21 -67 65s33 66 68 66c51 0 78 -45 78 -112c0 -113 -64 -192 -164 -233z" />
    <glyph glyph-name="slash" unicode="/" 
d="M58 -46l428 756h56l-428 -756h-56z" />
    <glyph glyph-name="underscore" unicode="_" 
d="M60 -131v56h480v-56h-480z" />
    <glyph glyph-name="asterisk.alt" 
d="M196 330l-33 23l95 150l-146 57l13 37l149 -49l8 164h36l8 -161l149 46l14 -37l-147 -57l96 -150l-34 -23l-104 145z" />
    <glyph glyph-name="comma.dnom" 
d="M264 -111l-14 30c35 15 60 43 60 81c-3 -2 -6 -2 -9 -2c-19 0 -39 12 -39 36c0 25 19 40 40 40c30 0 48 -21 48 -64c0 -52 -34 -99 -86 -121z" />
    <glyph glyph-name="period.dnom" 
d="M300 -8c-22 0 -40 16 -40 41c0 26 18 41 40 41s40 -15 40 -41c0 -25 -18 -41 -40 -41z" />
    <glyph glyph-name="slash.frac" 
d="M386 396l-26 24l169 204l39 -34zM71 34l-39 34l182 194l26 -24z" />
    <glyph glyph-name="comma.numr" 
d="M264 159l-14 28c35 15 60 43 60 82c-3 -2 -6 -2 -9 -2c-19 0 -39 12 -39 36c0 25 19 40 40 40c30 0 48 -22 48 -65c0 -53 -34 -100 -86 -119z" />
    <glyph glyph-name="period.numr" 
d="M300 260c-22 0 -40 16 -40 42c0 25 18 41 40 41s40 -16 40 -41c0 -26 -18 -42 -40 -42z" />
    <glyph glyph-name="comma.subs" 
d="M264 -281l-14 30c35 15 60 43 60 81c-3 -2 -6 -2 -9 -2c-19 0 -39 12 -39 35c0 26 19 41 40 41c30 0 48 -21 48 -64c0 -52 -34 -99 -86 -121z" />
    <glyph glyph-name="period.subs" 
d="M300 -178c-22 0 -40 16 -40 41c0 26 18 41 40 41s40 -15 40 -41c0 -25 -18 -41 -40 -41z" />
    <glyph glyph-name="braceleft" unicode="{" 
d="M449 -152c-123 -22 -184 28 -184 130c0 73 48 122 48 191c0 40 -66 89 -188 89v40c122 0 188 49 188 89c0 64 -48 123 -48 191c0 102 61 152 184 130l55 -10v-37l-56 10c-107 19 -132 -29 -132 -97c0 -59 46 -115 46 -178c0 -61 -59 -104 -127 -116v-4
c68 -12 127 -55 127 -116c0 -71 -46 -114 -46 -178c0 -68 25 -116 132 -97l56 10v-37z" />
    <glyph glyph-name="braceright" unicode="}" 
d="M152 -152l-55 10v37l55 -10c107 -21 134 29 134 97c0 64 -47 107 -47 178c0 61 58 104 126 116v4c-68 12 -126 55 -126 116c0 63 47 119 47 178c0 68 -27 118 -134 97l-55 -10v37l55 10c121 22 183 -28 183 -130c0 -68 -48 -127 -48 -191c0 -40 66 -89 187 -89v-40
c-121 0 -187 -49 -187 -89c0 -69 48 -118 48 -191c0 -102 -62 -152 -183 -130z" />
    <glyph glyph-name="bracketleft" unicode="[" 
d="M235 -152v860h269v-37h-221v-786h221v-37h-269z" />
    <glyph glyph-name="bracketright" unicode="]" 
d="M97 -152v37h220v786h-220v37h269v-860h-269z" />
    <glyph glyph-name="parenleft" unicode="(" 
d="M448 -175c-142 105 -230 258 -230 453s88 348 230 453l32 -33c-140 -112 -206 -248 -206 -420s66 -308 206 -420z" />
    <glyph glyph-name="parenright" unicode=")" 
d="M152 -175l-31 33c139 112 205 248 205 420s-66 308 -205 420l31 33c142 -105 230 -258 230 -453s-88 -348 -230 -453z" />
    <glyph glyph-name="parenleft.dnom" 
d="M348 -71c-65 61 -104 130 -104 227c0 99 39 167 104 230l34 -28c-62 -59 -86 -122 -86 -202c0 -79 24 -142 86 -201z" />
    <glyph glyph-name="parenright.dnom" 
d="M252 -71l-34 26c63 59 86 122 86 201c0 80 -23 143 -86 202l34 28c65 -63 104 -131 104 -230c0 -97 -39 -166 -104 -227z" />
    <glyph glyph-name="parenleft.numr" 
d="M348 196c-65 62 -104 132 -104 228c0 98 39 168 104 229l34 -27c-62 -59 -86 -122 -86 -202c0 -78 24 -141 86 -200z" />
    <glyph glyph-name="parenright.numr" 
d="M252 196l-34 28c63 59 86 122 86 200c0 80 -23 143 -86 202l34 27c65 -61 104 -131 104 -229c0 -96 -39 -166 -104 -228z" />
    <glyph glyph-name="parenleft.subs" 
d="M348 -241c-65 61 -104 130 -104 227c0 99 39 167 104 230l34 -28c-62 -59 -86 -122 -86 -202c0 -79 24 -142 86 -201z" />
    <glyph glyph-name="parenright.subs" 
d="M252 -241l-34 26c63 59 86 122 86 201c0 80 -23 143 -86 202l34 28c65 -63 104 -131 104 -230c0 -97 -39 -166 -104 -227z" />
    <glyph glyph-name="emdash" unicode="&#x2014;" 
d="M20 222v58h560v-58h-560z" />
    <glyph glyph-name="endash" unicode="&#x2013;" 
d="M80 222v58h440v-58h-440z" />
    <glyph glyph-name="hyphen" unicode="-" 
d="M91 307v46h418v-46h-418z" />
    <glyph glyph-name="guillemotleft" unicode="&#xab;" 
d="M243 62l-146 162v56l146 162l31 -28l-127 -162l127 -164zM458 62l-144 162v56l144 162l32 -28l-127 -162l127 -164z" />
    <glyph glyph-name="guillemotright" unicode="&#xbb;" 
d="M142 62l-32 26l127 164l-127 162l32 28l145 -162v-56zM357 62l-31 26l127 164l-127 162l31 28l146 -162v-56z" />
    <glyph glyph-name="guilsinglleft" unicode="&#x2039;" 
d="M352 62l-147 162v56l147 162l30 -28l-127 -162l127 -164z" />
    <glyph glyph-name="guilsinglright" unicode="&#x203a;" 
d="M249 62l-31 26l127 164l-127 162l31 28l146 -162v-56z" />
    <glyph glyph-name="quotedblbase" unicode="&#x201e;" 
d="M138 -224l-22 37c59 36 96 92 100 165c-9 -5 -19 -7 -29 -7c-36 0 -62 26 -62 64c0 39 26 68 65 68c45 0 80 -39 80 -106c0 -97 -51 -178 -132 -221zM353 -224l-22 37c58 36 96 92 100 163c-8 -3 -19 -5 -27 -5c-38 0 -63 26 -63 64c0 39 27 68 65 68
c44 0 80 -39 80 -106c0 -97 -52 -178 -133 -221z" />
    <glyph glyph-name="quotedblleft" unicode="&#x201c;" 
d="M191 373c-45 0 -79 39 -79 105c0 96 51 178 131 222l22 -37c-59 -37 -96 -94 -101 -165c10 5 20 7 30 7c36 0 62 -27 62 -64c0 -41 -26 -68 -65 -68zM407 373c-44 0 -80 39 -80 105c0 96 52 178 132 222l23 -37c-60 -37 -97 -94 -102 -165c9 5 19 7 29 7
c38 0 63 -27 63 -64c0 -41 -27 -68 -65 -68z" />
    <glyph glyph-name="quotedblright" unicode="&#x201d;" 
d="M138 373l-22 36c59 37 96 93 99 166c-8 -5 -18 -8 -28 -8c-36 0 -62 26 -62 63c0 41 26 70 65 70c45 0 80 -40 80 -107c0 -96 -51 -177 -132 -220zM353 373l-22 36c58 37 96 93 100 164c-8 -3 -19 -6 -27 -6c-38 0 -63 26 -63 63c0 41 27 70 65 70c44 0 80 -40 80 -107
c0 -96 -52 -177 -133 -220z" />
    <glyph glyph-name="quoteleft" unicode="&#x2018;" 
d="M298 373c-43 0 -80 39 -80 105c0 96 53 178 133 222l23 -37c-59 -37 -96 -94 -100 -165c8 5 18 7 28 7c36 0 62 -27 62 -64c0 -41 -28 -68 -66 -68z" />
    <glyph glyph-name="quoteright" unicode="&#x2019;" 
d="M247 373l-24 36c60 37 97 93 101 165c-9 -4 -18 -7 -29 -7c-37 0 -63 26 -63 63c0 41 28 70 66 70c45 0 80 -40 80 -107c0 -96 -53 -177 -131 -220z" />
    <glyph glyph-name="quotesinglbase" unicode="&#x201a;" 
d="M247 -224l-24 37c60 36 97 92 101 165c-9 -5 -18 -7 -29 -7c-37 0 -63 26 -63 64c0 39 28 68 66 68c45 0 80 -39 80 -106c0 -97 -53 -178 -131 -221z" />
    <glyph glyph-name="comma.sups" 
d="M264 329l-14 31c35 14 60 42 60 80c-3 -2 -6 -2 -9 -2c-19 0 -39 12 -39 36c0 25 19 40 40 40c30 0 48 -21 48 -64c0 -52 -34 -99 -86 -121z" />
    <glyph glyph-name="parenleft.sups" 
d="M348 369c-65 62 -104 130 -104 227c0 99 39 167 104 230l34 -28c-62 -59 -86 -122 -86 -202c0 -79 24 -142 86 -201z" />
    <glyph glyph-name="parenright.sups" 
d="M252 369l-34 26c63 59 86 122 86 201c0 80 -23 143 -86 202l34 28c65 -63 104 -131 104 -230c0 -97 -39 -165 -104 -227z" />
    <glyph glyph-name="period.sups" 
d="M300 432c-22 0 -40 16 -40 41c0 26 18 41 40 41s40 -15 40 -41c0 -25 -18 -41 -40 -41z" />
    <glyph glyph-name="uni2007" unicode="&#x2007;" 
 />
    <glyph glyph-name="uni00A0" unicode="&#xa0;" 
 />
    <glyph glyph-name="space.frac" 
 />
    <glyph glyph-name="uni00A0.frac" 
 />
    <glyph glyph-name="cent" unicode="&#xa2;" 
d="M315 -30v107c-115 12 -196 95 -196 234c0 137 87 219 196 232v109h40v-106c60 -3 102 -31 134 -59l-30 -38c-29 27 -63 46 -104 48v-371c47 2 86 24 117 51l28 -36c-41 -36 -90 -62 -145 -65v-106h-40zM315 127v367c-84 -16 -138 -84 -138 -183c0 -100 53 -168 138 -184z
" />
    <glyph glyph-name="colonmonetary" unicode="&#x20a1;" 
d="M226 -110l16 125c-87 49 -140 157 -140 305c0 181 82 302 214 326l12 103h34l-12 -98h17c17 0 32 -2 48 -6l12 104h33l-14 -114c35 -15 63 -38 84 -62l-37 -35c-17 18 -33 33 -53 44l-64 -545c50 6 88 32 127 76l37 -32c-45 -52 -98 -87 -170 -92l-12 -99h-33l12 99
c-23 1 -44 5 -64 12l-13 -111h-34zM342 37l67 560c-15 4 -29 6 -45 6c-6 0 -13 0 -20 -1l-64 -549c17 -9 39 -15 62 -16zM248 73l62 524c-94 -28 -146 -129 -146 -275c0 -114 30 -203 84 -249z" />
    <glyph glyph-name="currency" unicode="&#xa4;" 
d="M99 91l-33 34l85 86c-23 31 -36 71 -36 118s13 88 35 120l-84 87l33 34l87 -90c31 27 71 42 114 42c42 0 82 -15 114 -42l87 90l33 -34l-85 -87c23 -32 36 -73 36 -120s-14 -87 -36 -118l85 -86l-33 -34l-88 88c-31 -29 -71 -43 -113 -43c-43 0 -82 14 -115 43zM300 181
c71 0 130 60 130 148s-59 147 -130 147s-130 -59 -130 -147s59 -148 130 -148z" />
    <glyph glyph-name="dollar" unicode="$" 
d="M248 -112l-45 4l28 151c-56 15 -105 41 -138 69l30 41c31 -24 71 -48 118 -60l41 225c-82 33 -162 69 -162 152c0 107 118 165 217 147l25 134l44 -5l-24 -137c43 -13 77 -36 106 -65l-33 -34c-29 22 -53 39 -83 49l-38 -202c86 -33 175 -72 175 -167
c0 -118 -138 -174 -235 -155zM293 373l36 195c-67 14 -151 -22 -151 -96c0 -48 51 -74 115 -99zM284 84c74 -13 168 20 168 102c0 57 -58 87 -128 115z" />
    <glyph glyph-name="dong" unicode="&#x20ab;" 
d="M281 108c-100 0 -165 66 -165 188c0 110 83 179 173 179c54 0 86 -18 123 -48l-4 89v41h-156v40h156v73h52v-73h80v-35l-80 -5v-439h-42l-5 45h-5c-31 -30 -72 -55 -127 -55zM291 153c39 0 78 18 117 59v171c-41 33 -69 47 -113 47c-70 0 -125 -59 -125 -132
c0 -89 43 -145 121 -145zM127 0v40h363v-40h-363z" />
    <glyph glyph-name="Euro" unicode="&#x20ac;" 
d="M371 -12c-128 0 -222 96 -244 255h-64v33l60 4c-1 13 -1 26 -1 40c0 11 0 23 1 34h-60v35l64 5c22 160 119 257 260 257c68 0 127 -36 163 -78l-37 -35c-35 39 -75 65 -129 65c-109 0 -178 -80 -195 -210h309v-39h-312c-2 -10 -2 -21 -2 -32c0 -14 0 -28 1 -42h273v-37
h-269c18 -128 84 -207 186 -207c61 0 104 27 148 77l37 -32c-49 -57 -106 -93 -189 -93z" />
    <glyph glyph-name="florin" unicode="&#x192;" 
d="M128 -97c-31 0 -57 9 -78 18l15 45c18 -8 38 -15 61 -14c74 -1 102 63 114 161l27 246h-111v44l68 3h48l6 61c15 128 61 203 164 203c36 0 66 -9 89 -21l-17 -44c-19 10 -40 16 -71 16c-72 0 -100 -73 -108 -149l-7 -66h152v-47h-157l-29 -255
c-15 -123 -57 -201 -166 -201z" />
    <glyph glyph-name="lira" unicode="&#x20a4;" 
d="M82 0v35c86 39 131 112 127 207h-128v34l90 5h30c-5 22 -14 42 -21 64h-99v36l85 3c-11 29 -19 60 -19 91c0 108 79 176 204 176c82 0 136 -33 172 -73l-36 -34c-33 32 -73 57 -136 57c-96 0 -147 -55 -147 -126c0 -31 7 -61 17 -91h216v-39h-201c7 -21 15 -42 19 -64
h182v-39h-175c2 -85 -20 -136 -84 -187v-4h346v-51h-442z" />
    <glyph glyph-name="uni20BA" unicode="&#x20ba;" 
d="M175 -12v288l-111 -50v42l111 51v78l-111 -50v41l111 52v199h60v-170l190 90v-43l-190 -89v-79l190 90v-41l-190 -91v-262c105 1 245 59 245 177c0 13 0 27 -7 48l49 14c7 -24 8 -40 8 -59c0 -164 -166 -239 -355 -236z" />
    <glyph glyph-name="peseta" unicode="&#x20a7;" 
d="M129 0v431h-78v38l78 5v165h135c122 0 209 -46 219 -165h65v-43h-65c-9 -118 -99 -175 -219 -175h-79v-256h-56zM185 474h241c-8 88 -69 121 -172 121h-69v-121zM185 300h69c103 0 164 44 172 131h-241v-131z" />
    <glyph glyph-name="uni20B1" unicode="&#x20b1;" 
d="M129 0v389h-78v30l78 5v64h-78v31l78 4v116h135c103 0 182 -32 209 -117h75v-34h-68c1 -11 3 -23 3 -36c0 -10 0 -20 -1 -29h66v-34h-73c-25 -90 -106 -133 -211 -133h-79v-256h-56zM185 522h230c-25 53 -79 73 -161 73h-69v-73zM185 423h240c1 9 2 19 2 29
c0 13 -1 25 -2 36h-240v-65zM185 300h69c84 0 142 29 165 89h-234v-89z" />
    <glyph glyph-name="uni20B9" unicode="&#x20b9;" 
d="M418 0l-212 271h-90v48h80c123 0 197 44 201 136h-281v35l74 5h204c-16 68 -86 95 -198 95h-80v49h408v-39h-160c47 -19 79 -57 89 -105h71v-40h-69c-5 -107 -79 -167 -185 -183l216 -272h-68z" />
    <glyph glyph-name="sterling" unicode="&#xa3;" 
d="M82 0v35c88 40 126 113 126 190c0 23 -3 44 -9 65h-119v40l104 3c-17 48 -37 94 -37 142c0 108 79 176 204 176c82 0 136 -33 172 -73l-36 -34c-33 32 -73 57 -136 57c-96 0 -147 -55 -147 -126c0 -48 18 -93 36 -142h197v-43h-183c5 -21 7 -42 7 -66
c0 -78 -28 -126 -83 -169v-4h346v-51h-442z" />
    <glyph glyph-name="yen" unicode="&#xa5;" 
d="M270 0v162h-185v40h185v69h-185v38h170l-194 330h61l103 -185c25 -44 47 -88 74 -137h4c26 49 49 93 75 137l103 185h58l-195 -330h172v-38h-188v-69h188v-40h-188v-162h-58z" />
    <glyph glyph-name="uni2126" unicode="&#x2126;" 
d="M35 0v49h129v4c-58 60 -117 154 -117 295c0 186 98 322 253 322s253 -136 253 -322c0 -141 -58 -235 -117 -295v-4h129v-49h-198v44c68 58 124 152 124 303c0 153 -69 270 -191 270s-191 -117 -191 -270c0 -151 56 -245 124 -303v-44h-198z" />
    <glyph glyph-name="approxequal" unicode="&#x2248;" 
d="M125 366l-40 16c32 91 79 120 126 120c77 0 122 -89 180 -89c32 0 60 12 84 88l40 -18c-32 -89 -79 -116 -126 -116c-77 0 -122 88 -180 88c-33 0 -60 -15 -84 -89zM125 159l-40 15c32 92 79 119 126 119c77 0 122 -88 180 -88c32 0 60 12 84 89l40 -18
c-32 -89 -79 -118 -126 -118c-77 0 -122 89 -180 89c-33 0 -60 -13 -84 -88z" />
    <glyph glyph-name="asciitilde" unicode="~" 
d="M125 263l-40 16c32 90 79 118 126 118c77 0 122 -87 180 -87c32 0 60 12 84 87l40 -17c-32 -89 -79 -117 -126 -117c-77 0 -122 87 -180 87c-33 0 -60 -13 -84 -87z" />
    <glyph glyph-name="uni2219" unicode="&#x2219;" 
d="M295 273c-36 0 -67 27 -67 71c0 45 31 73 67 73s68 -28 68 -73c0 -44 -32 -71 -68 -71z" />
    <glyph glyph-name="divide" unicode="&#xf7;" 
d="M300 465c-25 0 -44 17 -44 44c0 25 19 43 44 43s44 -18 44 -43c0 -27 -19 -44 -44 -44zM91 307v46h418v-46h-418zM300 108c-25 0 -44 16 -44 44c0 26 19 43 44 43s44 -17 44 -43c0 -28 -19 -44 -44 -44z" />
    <glyph glyph-name="uni2215" unicode="&#x2215;" 
d="M386 396l-26 24l169 204l39 -34zM71 34l-39 34l182 194l26 -24z" />
    <glyph glyph-name="equal" unicode="=" 
d="M91 410v47h418v-47h-418zM91 203v47h418v-47h-418z" />
    <glyph glyph-name="greater" unicode="&#x3e;" 
d="M110 -12v69l315 237v4l-315 237v68l369 -284v-47z" />
    <glyph glyph-name="greaterequal" unicode="&#x2265;" 
d="M91 153v52l357 131v4l-357 131v52l418 -157v-56zM91 0v46h418v-46h-418z" />
    <glyph glyph-name="uni2206" unicode="&#x2206;" 
d="M44 0v35l224 623h65l224 -623v-35h-513zM110 51h381l-116 330l-72 216h-4l-74 -216z" />
    <glyph glyph-name="infinity" unicode="&#x221e;" 
d="M452 161c-74 0 -122 41 -172 122h-4c-28 -47 -74 -104 -146 -104c-70 0 -131 63 -131 148c0 96 64 155 140 155c68 0 112 -52 142 -107h4c39 70 92 123 165 123c89 0 151 -67 151 -163c0 -102 -62 -174 -149 -174zM451 219c64 0 100 50 100 113c0 67 -39 120 -107 120
c-52 0 -93 -34 -137 -116c49 -89 90 -117 144 -117zM139 225c48 0 87 36 115 99c-37 71 -73 102 -116 102c-53 0 -89 -35 -89 -96c0 -62 41 -105 90 -105z" />
    <glyph glyph-name="integral" unicode="&#x222b;" 
d="M244 -158c-19 0 -35 3 -43 7l7 45c8 -3 20 -4 34 -4c58 0 69 63 69 170c0 144 -44 366 -44 507c0 125 21 221 121 221c19 0 36 -2 43 -5l-8 -45c-9 1 -21 4 -35 4c-56 0 -66 -67 -66 -173c0 -142 43 -363 43 -505c0 -127 -22 -222 -121 -222z" />
    <glyph glyph-name="less" unicode="&#x3c;" 
d="M490 -12l-368 284v47l368 284v-68l-315 -237v-4l315 -237v-69z" />
    <glyph glyph-name="lessequal" unicode="&#x2264;" 
d="M509 153l-418 157v56l418 157v-52l-357 -131v-4l357 -131v-52zM91 0v46h418v-46h-418z" />
    <glyph glyph-name="logicalnot" unicode="&#xac;" 
d="M459 108v199h-368v46h418v-245h-50z" />
    <glyph glyph-name="uni00B5" unicode="&#xb5;" 
d="M83 -184v666h59v-292c0 -96 36 -151 124 -151c55 0 111 17 174 124v319h59c-3 -136 -4 -283 -4 -411c0 -24 11 -34 24 -34c5 0 9 0 18 2l10 -45c-10 -4 -21 -6 -38 -6c-46 0 -61 34 -64 117h-3c-47 -80 -108 -116 -175 -116c-55 0 -101 12 -130 63c-1 -109 0 -153 4 -236
h-58z" />
    <glyph glyph-name="minus" unicode="&#x2212;" 
d="M91 307v46h418v-46h-418z" />
    <glyph glyph-name="multiply" unicode="&#xd7;" 
d="M142 131l-33 34l158 165l-158 164l33 34l158 -165l158 165l33 -34l-158 -164l158 -165l-33 -34l-158 166z" />
    <glyph glyph-name="notequal" unicode="&#x2260;" 
d="M121 74l78 129h-108v47h136l97 160h-233v47h262l77 129h49l-78 -129h108v-47h-136l-97 -160h233v-47h-261l-78 -129h-49z" />
    <glyph glyph-name="partialdiff" unicode="&#x2202;" 
d="M259 -12c-92 0 -177 72 -177 190c0 130 79 224 218 224c57 0 116 -29 157 -76c1 13 1 26 1 39c0 187 -62 258 -151 258c-43 0 -83 -20 -116 -53l-28 38c38 40 90 64 149 64c119 0 204 -93 204 -308c0 -224 -103 -376 -257 -376zM264 37c99 0 168 91 189 234
c-50 61 -103 82 -150 82c-114 0 -164 -78 -164 -171c0 -87 58 -145 125 -145z" />
    <glyph glyph-name="percent" unicode="%" 
d="M164 324c-80 0 -137 61 -137 165c0 105 57 162 137 162c78 0 135 -57 135 -162c0 -104 -57 -165 -135 -165zM386 396l-27 24l171 204l38 -34zM164 363c50 0 88 45 88 126c0 84 -38 123 -88 123c-51 0 -90 -39 -90 -123c0 -81 39 -126 90 -126zM436 -12
c-78 0 -135 61 -135 166c0 103 57 160 135 160c80 0 137 -57 137 -160c0 -105 -57 -166 -137 -166zM436 27c51 0 90 44 90 127s-39 123 -90 123c-49 0 -88 -40 -88 -123s39 -127 88 -127zM71 34l-37 34l181 194l25 -24z" />
    <glyph glyph-name="perthousand" unicode="&#x2030;" 
d="M168 389c-68 0 -114 48 -114 132c0 82 46 130 114 130c67 0 113 -48 113 -130c0 -84 -46 -132 -113 -132zM168 424c41 0 68 32 68 97c0 63 -27 96 -68 96c-42 0 -71 -33 -71 -96c0 -65 29 -97 71 -97zM122 281l-12 26l444 202l18 -45zM168 -12c-68 0 -114 48 -114 132
c0 81 46 130 114 130c67 0 113 -49 113 -130c0 -84 -46 -132 -113 -132zM433 -12c-67 0 -112 48 -112 132c0 81 45 130 112 130c68 0 113 -49 113 -130c0 -84 -45 -132 -113 -132zM168 23c41 0 68 31 68 97c0 63 -27 94 -68 94c-42 0 -71 -32 -71 -94c0 -66 29 -97 71 -97z
M433 23c41 0 69 31 69 97c0 63 -28 94 -69 94c-40 0 -70 -32 -70 -94c0 -66 30 -97 70 -97z" />
    <glyph glyph-name="plus" unicode="+" 
d="M275 108v199h-184v46h184v199h50v-199h184v-46h-184v-199h-50z" />
    <glyph glyph-name="plusminus" unicode="&#xb1;" 
d="M275 115v193h-184v46h184v198h50v-198h184v-46h-184v-193h-50zM91 0v46h418v-46h-418z" />
    <glyph glyph-name="product" unicode="&#x220f;" 
d="M62 -120v759h476v-759h-62v707h-355v-707h-59z" />
    <glyph glyph-name="radical" unicode="&#x221a;" 
d="M311 -101l-150 435l-70 -33l-18 36l119 55l122 -366c6 -18 11 -38 16 -57h4c4 19 6 39 11 57l186 794h45l-218 -921h-47z" />
    <glyph glyph-name="summation" unicode="&#x2211;" 
d="M74 -120v40l250 340l-238 339v40h430v-51h-356v-4l229 -323l-240 -326v-4h397v-51h-472z" />
    <glyph glyph-name="arrowup" unicode="&#x2191;" 
d="M275 -25v470l-208 -220l-33 32l264 269h4l264 -269l-33 -32l-208 220v-470h-50z" />
    <glyph glyph-name="arrowright" unicode="&#x2192;" 
d="M309 -14l-31 33l220 208h-470v50h470l-220 208l31 33l272 -264v-4z" />
    <glyph glyph-name="arrowdown" unicode="&#x2193;" 
d="M298 -25l-264 272l33 31l208 -220v468h50v-468l208 220l33 -31l-264 -272h-4z" />
    <glyph glyph-name="arrowleft" unicode="&#x2190;" 
d="M288 -14l-269 264v4l269 264l33 -33l-220 -208h468v-50h-468l220 -208z" />
    <glyph glyph-name="uni25C9" unicode="&#x25c9;" 
d="M300 87c-93 0 -173 66 -173 176c0 111 80 177 173 177s173 -66 173 -177c0 -110 -80 -176 -173 -176zM300 127c66 0 130 48 130 136c0 89 -64 139 -130 139s-129 -50 -129 -139c0 -88 63 -136 129 -136zM300 205c-28 0 -54 24 -54 58c0 35 26 57 54 57s54 -22 54 -57
c0 -34 -26 -58 -54 -58z" />
    <glyph glyph-name="uni25C6" unicode="&#x25c6;" 
d="M301 132l-133 131l133 131l131 -131z" />
    <glyph glyph-name="lozenge" unicode="&#x25ca;" 
d="M270 -10l-164 340l164 340h60l165 -340l-165 -340h-60zM298 39h4l66 137l72 154l-138 291h-4l-66 -139l-71 -152l71 -154z" />
    <glyph glyph-name="filledbox" unicode="&#x25a0;" 
d="M208 170v188h184v-188h-184z" />
    <glyph glyph-name="triagup" unicode="&#x25b2;" 
d="M44 44v2l255 484h4l253 -484v-2h-512z" />
    <glyph glyph-name="uni25B6" unicode="&#x25b6;" 
d="M78 24v515h2l481 -255v-4l-481 -256h-2z" />
    <glyph glyph-name="triagdn" unicode="&#x25bc;" 
d="M299 34l-255 482v2h512v-2l-253 -482h-4z" />
    <glyph glyph-name="uni25C0" unicode="&#x25c0;" 
d="M520 24l-481 256v4l481 255h2v-515h-2z" />
    <glyph glyph-name="uni25B3" unicode="&#x25b3;" 
d="M44 44v2l255 484h4l253 -484v-2h-512zM123 89h355l-177 346z" />
    <glyph glyph-name="uni25B7" unicode="&#x25b7;" 
d="M78 24v515h2l481 -255v-4l-481 -256h-2zM123 104l341 178l-341 177v-355z" />
    <glyph glyph-name="uni25BD" unicode="&#x25bd;" 
d="M299 33l-255 483v2h512v-2l-253 -483h-4zM301 126l177 349h-355z" />
    <glyph glyph-name="uni25C1" unicode="&#x25c1;" 
d="M520 24l-481 256v4l481 255h2v-515h-2zM477 104v355l-341 -177z" />
    <glyph glyph-name="uni2610" unicode="&#x2610;" 
d="M-24 -10v634l57 46h591v-624l-48 -56h-600zM13 27h540v574h-540v-574z" />
    <glyph glyph-name="uni2611" unicode="&#x2611;" 
d="M-24 -10v634l57 46h526c35 43 70 82 107 118l40 -39c-27 -27 -56 -55 -82 -85v-618l-48 -56h-600zM13 27h540v550c-97 -132 -179 -293 -227 -467l-67 -7c-37 102 -84 196 -140 278l43 30c50 -79 96 -169 123 -256h4c45 151 124 310 219 446h-495v-574z" />
    <glyph glyph-name="uni2713" unicode="&#x2713;" 
d="M147 -20c-40 109 -89 206 -149 294l42 29c56 -83 104 -179 135 -271h4c70 237 221 491 385 651l41 -40c-167 -154 -318 -392 -392 -655z" />
    <glyph glyph-name="uni2752" unicode="&#x2752;" 
d="M173 130v212l57 46h197v-204l-46 -54h-208zM207 161h151v159h-151v-159z" />
    <glyph glyph-name="bar" unicode="|" 
d="M274 -250v1000h53v-1000h-53z" />
    <glyph glyph-name="brokenbar" unicode="&#xa6;" 
d="M274 283v467h53v-467h-53zM274 -250v468h53v-468h-53z" />
    <glyph glyph-name="at" unicode="@" 
d="M342 -15c-157 0 -286 121 -286 341c0 223 126 344 293 344c132 0 196 -90 196 -201v-293h-40l-5 61h-4c-31 -38 -86 -73 -137 -73c-70 0 -130 46 -130 128c0 98 93 149 270 171v11c0 82 -45 153 -154 153c-131 0 -240 -109 -240 -304c0 -184 100 -296 238 -296
c60 0 105 17 144 48l22 -35c-50 -36 -103 -55 -167 -55zM370 209c39 0 84 24 126 74v139c-155 -22 -216 -61 -216 -130c0 -53 35 -83 90 -83z" />
    <glyph glyph-name="ampersand" unicode="&#x26;" 
d="M240 -12c-108 0 -191 72 -191 181c0 87 63 143 130 192c-28 56 -45 112 -45 161c0 86 55 150 138 150c74 0 116 -51 116 -124c0 -84 -76 -140 -148 -196c46 -77 110 -152 176 -210c42 57 72 126 94 208h54c-25 -90 -61 -172 -112 -242c43 -35 84 -58 122 -71l-19 -49
c-42 14 -88 40 -136 79c-48 -48 -104 -79 -179 -79zM221 392c63 47 117 90 117 154c0 42 -18 81 -67 81c-54 0 -85 -45 -85 -104c0 -40 13 -84 35 -131zM247 37c48 0 95 24 134 62c-69 63 -134 142 -183 222c-51 -43 -91 -89 -91 -148c0 -83 64 -136 140 -136z" />
    <glyph glyph-name="paragraph" unicode="&#xb6;" 
d="M329 237c-144 0 -248 61 -248 211c0 153 98 210 234 210h43v-421h-29zM413 -80v738h57v-738h-57z" />
    <glyph glyph-name="copyright" unicode="&#xa9;" horiz-adv-x="641" 
d="M320 -12c-172 0 -320 131 -320 334c0 202 148 330 320 330c173 0 321 -128 321 -330c0 -203 -148 -334 -321 -334zM320 23c153 0 282 120 282 299c0 178 -129 296 -282 296c-152 0 -281 -118 -281 -296c0 -179 129 -299 281 -299zM327 124c-97 0 -178 74 -178 199
c0 115 87 188 182 188c54 0 90 -25 122 -57l-27 -30c-29 27 -56 43 -94 43c-77 0 -132 -59 -132 -144c0 -96 52 -155 130 -155c45 0 79 21 110 47l23 -32c-37 -33 -73 -59 -136 -59z" />
    <glyph glyph-name="registered" unicode="&#xae;" 
d="M300 322c-102 0 -184 79 -184 195c0 117 82 195 184 195c101 0 185 -78 185 -195c0 -116 -84 -195 -185 -195zM300 355c84 0 150 66 150 162c0 95 -66 164 -150 164s-150 -69 -150 -164c0 -96 66 -162 150 -162zM230 417v206h72c40 0 78 -16 78 -65
c0 -24 -18 -48 -39 -55l47 -86h-41l-36 74h-46v-74h-35zM265 520h28c30 0 49 12 49 36c0 23 -13 36 -46 36h-31v-72z" />
    <glyph glyph-name="uni2117" unicode="&#x2117;" horiz-adv-x="641" 
d="M320 -12c-172 0 -320 131 -320 334c0 202 148 330 320 330c173 0 321 -128 321 -330c0 -203 -148 -334 -321 -334zM320 23c153 0 282 120 282 299c0 178 -129 296 -282 296c-152 0 -281 -118 -281 -296c0 -179 129 -299 281 -299zM208 136v363h135c78 0 139 -37 139 -113
c0 -83 -61 -126 -139 -126h-86v-124h-49zM257 301h74c63 0 101 25 101 84c0 52 -38 73 -101 73h-74v-157z" />
    <glyph glyph-name="section" unicode="&#xa7;" 
d="M291 -57c-73 0 -132 27 -173 67l37 33c36 -31 74 -52 136 -52c59 0 96 36 96 79c0 127 -288 96 -288 279c0 63 40 104 94 131c-19 21 -32 46 -32 80c0 62 46 122 141 122c62 0 114 -24 153 -54l-29 -39c-35 26 -72 46 -121 46c-64 0 -90 -35 -90 -72
c0 -122 287 -94 287 -279c0 -66 -39 -101 -93 -129c20 -21 32 -47 32 -82c0 -75 -66 -130 -150 -130zM372 185c50 20 78 44 78 95c0 100 -133 119 -221 171c-47 -23 -79 -51 -79 -99c0 -97 134 -114 222 -167z" />
    <glyph glyph-name="trademark" unicode="&#x2122;" 
d="M100 368v266h-102v42h252v-42h-103v-266h-47zM298 368v308h59l50 -121l29 -84h4l28 84l48 121h59v-308h-44v152l5 101h-4l-78 -201h-36l-78 201h-4l5 -101v-152h-43z" />
    <glyph glyph-name="degree" unicode="&#xb0;" 
d="M300 441c-62 0 -118 46 -118 120c0 77 56 124 118 124c61 0 119 -47 119 -124c0 -74 -58 -120 -119 -120zM300 478c47 0 79 35 79 83c0 52 -32 87 -79 87c-46 0 -78 -35 -78 -87c0 -48 32 -83 78 -83z" />
    <glyph glyph-name="estimated" unicode="&#x212e;" 
d="M300 -12c-151 0 -274 150 -274 336s123 336 274 336s274 -150 274 -336v-8h-414c-2 0 -4 -2 -4 -4v-224c0 -8 4 -14 8 -20c34 -38 84 -60 138 -60c70 0 136 44 182 112h38c-54 -80 -132 -132 -222 -132zM160 334h280c4 0 6 2 6 6v224c0 8 -4 16 -10 22
c-34 34 -84 54 -134 54c-54 0 -104 -22 -138 -58c-4 -6 -8 -15 -8 -22v-220c0 -4 2 -6 4 -6z" />
    <glyph glyph-name="uni2113" unicode="&#x2113;" 
d="M358 -12c-79 0 -147 61 -147 179c-16 -13 -35 -25 -53 -38l-25 38c28 18 54 40 80 60v286c0 150 57 207 131 207c68 0 118 -52 118 -149c0 -125 -78 -251 -191 -354v-37c0 -103 43 -141 95 -141c40 0 66 20 90 44l25 -37c-29 -28 -70 -58 -123 -58zM271 285
c85 86 139 183 139 286c0 75 -28 103 -66 103c-39 0 -73 -48 -73 -149v-240z" />
    <glyph glyph-name="asciicircum" unicode="^" 
d="M120 288l153 382h54l153 -382h-54l-73 194l-51 132h-4l-50 -132l-74 -194h-54z" />
    <glyph glyph-name="dagger" unicode="&#x2020;" 
d="M274 -80l4 591l-137 -4v53l137 -3l-4 155h52l-3 -155l136 3v-53l-136 4l3 -591h-52z" />
    <glyph glyph-name="daggerdbl" unicode="&#x2021;" 
d="M274 -80l4 155l-137 -3v53l137 -5l-4 196l4 196l-137 -5v53l137 -3l-4 155h52l-3 -155l136 3v-53l-136 5l3 -196l-3 -196l136 5v-53l-136 3l3 -155h-52z" />
    <glyph glyph-name="minute" unicode="&#x2032;" 
d="M266 464l24 228h56l-12 -84l-30 -144h-38z" />
    <glyph glyph-name="second" unicode="&#x2033;" 
d="M101 464l23 228h57l-13 -84l-29 -144h-38zM433 464l22 228h56l-11 -84l-30 -144h-37z" />
    <glyph glyph-name="uni2120" unicode="&#x2120;" 
d="M132 356c-44 0 -81 18 -108 47l27 29c25 -24 49 -39 84 -39s56 18 56 46c0 30 -13 35 -45 51l-47 25c-29 15 -59 38 -59 83c0 51 40 84 99 84c35 0 69 -17 90 -38l-25 -30c-19 16 -44 30 -67 30c-35 0 -54 -21 -54 -44c0 -22 17 -36 44 -48l48 -24c38 -18 60 -41 60 -86
s-39 -86 -103 -86zM298 368v308h59l50 -121l29 -84h4l28 84l48 121h59v-308h-44v152l5 101h-4l-78 -201h-36l-78 201h-4l5 -101v-152h-43z" />
    <glyph glyph-name="acutecomb" unicode="&#x301;" horiz-adv-x="0" 
d="M-359 573l91 141h67l-111 -141h-47z" />
    <glyph glyph-name="uni0306" unicode="&#x306;" horiz-adv-x="0" 
d="M-300 575c-84 0 -117 70 -124 126h40c6 -43 32 -86 84 -86s78 43 84 86h40c-6 -56 -40 -126 -124 -126z" />
    <glyph glyph-name="uni030C" unicode="&#x30c;" horiz-adv-x="0" 
d="M-325 573l-96 141h47l72 -101h4l72 101h47l-96 -141h-50z" />
    <glyph glyph-name="uni0327" unicode="&#x327;" horiz-adv-x="0" 
d="M-362 -210l-7 34c53 8 90 22 90 50c0 29 -25 42 -65 51l40 78h42l-28 -56c33 -11 59 -29 59 -70c0 -53 -64 -79 -131 -87z" />
    <glyph glyph-name="uni0302" unicode="&#x302;" horiz-adv-x="0" 
d="M-421 573l96 141h50l96 -141h-47l-72 100h-4l-72 -100h-47z" />
    <glyph glyph-name="uni0308" unicode="&#x308;" horiz-adv-x="0" 
d="M-391 594c-27 0 -45 21 -45 46c0 27 18 47 45 47c25 0 45 -20 45 -47c0 -25 -20 -46 -45 -46zM-209 594c-25 0 -45 21 -45 46c0 27 20 47 45 47c27 0 45 -20 45 -47c0 -25 -18 -46 -45 -46z" />
    <glyph glyph-name="uni0307" unicode="&#x307;" horiz-adv-x="0" 
d="M-300 638c-32 0 -59 25 -59 58c0 36 27 60 59 60s59 -24 59 -60c0 -33 -27 -58 -59 -58z" />
    <glyph glyph-name="gravecomb" unicode="&#x300;" horiz-adv-x="0" 
d="M-288 573l-111 141h67l91 -141h-47z" />
    <glyph glyph-name="uni030B" unicode="&#x30b;" horiz-adv-x="0" 
d="M-388 570l71 140h56l-85 -140h-42zM-249 570l71 140h55l-85 -140h-41z" />
    <glyph glyph-name="uni0304" unicode="&#x304;" horiz-adv-x="0" 
d="M-417 604v44h234v-44h-234z" />
    <glyph glyph-name="uni0328" unicode="&#x328;" horiz-adv-x="0" 
d="M-274 -205c-47 0 -84 29 -84 83c0 52 35 98 71 125h49c-46 -33 -74 -73 -74 -116c0 -32 23 -49 48 -49c17 0 30 5 42 14l18 -32c-16 -13 -48 -25 -70 -25z" />
    <glyph glyph-name="uni030A" unicode="&#x30a;" horiz-adv-x="0" 
d="M-300 540c-49 0 -85 36 -85 89s36 89 85 89s86 -36 86 -89s-37 -89 -86 -89zM-300 570c29 0 51 23 51 59c0 35 -22 58 -51 58c-28 0 -51 -23 -51 -58c0 -36 23 -59 51 -59z" />
    <glyph glyph-name="tildecomb" unicode="&#x303;" horiz-adv-x="0" 
d="M-431 581c5 50 27 96 77 96c48 0 76 -55 110 -55c21 0 34 20 39 55h36c-5 -49 -27 -96 -77 -96c-49 0 -75 55 -110 55c-21 0 -34 -20 -39 -55h-36z" />
    <glyph glyph-name="acute" unicode="&#xb4;" 
d="M241 573l91 141h67l-111 -141h-47z" />
    <glyph glyph-name="breve" unicode="&#x2d8;" 
d="M300 575c-84 0 -117 70 -124 126h40c6 -43 32 -86 84 -86s78 43 84 86h40c-6 -56 -40 -126 -124 -126z" />
    <glyph glyph-name="caron" unicode="&#x2c7;" 
d="M275 573l-96 141h47l72 -101h4l72 101h47l-96 -141h-50z" />
    <glyph glyph-name="cedilla" unicode="&#xb8;" 
d="M238 -210l-7 34c53 8 90 22 90 50c0 29 -25 42 -65 51l40 78h42l-28 -56c33 -11 59 -29 59 -70c0 -53 -64 -79 -131 -87z" />
    <glyph glyph-name="circumflex" unicode="&#x2c6;" 
d="M179 573l96 141h50l96 -141h-47l-72 100h-4l-72 -100h-47z" />
    <glyph glyph-name="dieresis" unicode="&#xa8;" 
d="M209 594c-27 0 -45 21 -45 46c0 27 18 47 45 47c25 0 45 -20 45 -47c0 -25 -20 -46 -45 -46zM391 594c-25 0 -45 21 -45 46c0 27 20 47 45 47c27 0 45 -20 45 -47c0 -25 -18 -46 -45 -46z" />
    <glyph glyph-name="dotaccent" unicode="&#x2d9;" 
d="M300 621c-31 0 -56 24 -56 58c0 35 25 58 56 58s56 -23 56 -58c0 -34 -25 -58 -56 -58z" />
    <glyph glyph-name="grave" unicode="`" 
d="M312 573l-111 141h67l91 -141h-47z" />
    <glyph glyph-name="hungarumlaut" unicode="&#x2dd;" 
d="M212 570l71 140h56l-85 -140h-42zM351 570l71 140h55l-85 -140h-41z" />
    <glyph glyph-name="macron" unicode="&#xaf;" 
d="M183 604v44h234v-44h-234z" />
    <glyph glyph-name="ogonek" unicode="&#x2db;" 
d="M326 -205c-47 0 -84 29 -84 83c0 52 35 98 71 125h49c-46 -33 -74 -73 -74 -116c0 -32 23 -49 48 -49c17 0 30 5 42 14l18 -32c-16 -13 -48 -25 -70 -25z" />
    <glyph glyph-name="ring" unicode="&#x2da;" 
d="M300 540c-49 0 -85 36 -85 89s36 89 85 89s86 -36 86 -89s-37 -89 -86 -89zM300 570c29 0 51 23 51 59c0 35 -22 58 -51 58c-28 0 -51 -23 -51 -58c0 -36 23 -59 51 -59z" />
    <glyph glyph-name="tilde" unicode="&#x2dc;" 
d="M169 581c5 50 27 96 77 96c48 0 76 -55 110 -55c21 0 34 20 39 55h36c-5 -49 -27 -96 -77 -96c-49 0 -75 55 -110 55c-21 0 -34 -20 -39 -55h-36z" />
    <glyph glyph-name="uniE0A0" unicode="&#xe0a0;" horiz-adv-x="599" 
d="M65 301v756h171v-653zM65 -281v278c0 128 48 193 154 258l94 57c76 48 103 103 103 201v191h-130l181 197l181 -197h-129v-223c0 -126 -30 -208 -133 -270l-46 -29c-81 -49 -104 -91 -104 -185v-278h-171z" />
    <glyph glyph-name="uniE0A1" unicode="&#xe0a1;" horiz-adv-x="599" 
d="M406 410h-314v520h96v-444h218v-76zM507 363v-520h-102l-152 338l11 -225v-113h-97v520h102l153 -339l-13 248v91h98z" />
    <glyph glyph-name="uniE0A2" unicode="&#xe0a2;" horiz-adv-x="599" 
d="M135 -70c-58 0 -86 27 -86 81v398c0 58 25 88 75 88v177c0 108 78 182 176 182c101 0 176 -77 176 -182v-177c51 0 75 -30 75 -88v-398c0 -54 -28 -81 -86 -81h-330zM208 497h184v177c0 64 -35 107 -92 107c-59 0 -92 -46 -92 -107v-177zM265 66h70v187
c28 13 41 35 41 64c0 46 -39 72 -76 72c-41 0 -76 -29 -76 -72c0 -29 13 -51 41 -64v-187z" />
    <glyph glyph-name="uniE0B0" unicode="&#xe0b0;" horiz-adv-x="599" 
d="M628 385l-656 -672v1344z" />
    <glyph glyph-name="uniE0B1" unicode="&#xe0b1;" horiz-adv-x="599" 
d="M-4 1032l632 -647l-632 -647l-60 55l578 592l-578 592z" />
    <glyph glyph-name="uniE0B2" unicode="&#xe0b2;" horiz-adv-x="599" 
d="M-28 385l656 672v-1344z" />
    <glyph glyph-name="uniE0B3" unicode="&#xe0b3;" horiz-adv-x="599" 
d="M604 -262l-632 647l632 647l60 -55l-578 -592l578 -592z" />
  </font>
</defs>
</svg>
